<svg id="Layer_1" data-name="Layer 1" xmlns="http://www.w3.org/2000/svg" viewBox="0 0 810.85 249.38"><defs><style>.cls-1{fill:#0f89d3;}.cls-2{fill:#e5870a;}</style></defs><title>project-5-logo</title><path class="cls-1" d="M292.5,257.25H248.74V219.09q0-16.64-1.4-20.77t-6.18-4.13c-3.61,0-5.9,1.68-6.87,5s-1.45,10.58-1.45,21.7v102q0,16,1.45,20.89a6.25,6.25,0,0,0,6.55,4.88q4.89,0,6.4-4.9t1.5-23v-27.6H292.5v8.56q0,34.08-3.69,48.35t-16.32,25q-12.63,10.73-31.13,10.72-19.23,0-31.7-9.08t-16.53-25.16q-4-16.06-4-48.34V239.08q0-23.73,1.25-35.6a58.73,58.73,0,0,1,7.43-22.85,45.14,45.14,0,0,1,17.15-17.29A49.69,49.69,0,0,1,240.12,157q19.32,0,31.91,9.76a45.12,45.12,0,0,1,16.52,24.31q4,14.55,3.95,45.29Z" transform="translate(-189.08 -157.03)"/><path class="cls-1" d="M394.86,201.24l-12,130.19q-2.85,30.92-4.77,42.17t-6.39,18.58A26.69,26.69,0,0,1,359.28,403q-7.95,3.45-25.41,3.46H308.41V377.67q9.78,0,12.59-1.29t2.82-5.76q0-2.17-2.61-18.85l-23-150.53h38.12l13.8,121.51,6.73-121.51Z" transform="translate(-189.08 -157.03)"/><path class="cls-1" d="M444.36,161.65v52A37.51,37.51,0,0,1,456,201.86,26.32,26.32,0,0,1,469.83,198a30.34,30.34,0,0,1,15,3.52,23.75,23.75,0,0,1,9.66,9.9,35.36,35.36,0,0,1,4,12.48q.68,6.11.68,26V331q0,19.8-2,29.49a31.74,31.74,0,0,1-9.51,16.82,24.89,24.89,0,0,1-17.77,7.12,24.61,24.61,0,0,1-13.77-4.21q-6.4-4.22-11.7-12.64l-2.7,13.59H402.37V161.65Zm12.79,90.72q0-14-1.35-18.24c-.91-2.85-2.67-4.27-5.31-4.27a4.78,4.78,0,0,0-5,3.72q-1.15,3.73-1.15,18.79v77.56q0,14.52,1.3,18.58c.87,2.71,2.58,4.07,5.15,4.07s4.34-1.4,5.14-4.2,1.2-9.54,1.2-20.21Z" transform="translate(-189.08 -157.03)"/><path class="cls-1" d="M608.07,294.41H553.71v38.91q0,12.21,1.35,15.73a5.1,5.1,0,0,0,5.2,3.53,6.26,6.26,0,0,0,6.39-4.68q1.61-4.68,1.61-18.1V306.07h39.81v13.29q0,16.68-1.61,25.63a59.62,59.62,0,0,1-7.54,19.12,40,40,0,0,1-15,15.25q-9.1,5.08-22.82,5.09a52.57,52.57,0,0,1-23.49-5,38.75,38.75,0,0,1-15.85-13.76,56,56,0,0,1-7.85-19.26q-2.19-10.5-2.18-30.58V263.35q0-23.6,4.88-37.22t16-20.89A45.79,45.79,0,0,1,558.18,198q17.67,0,29.15,8.74a46.09,46.09,0,0,1,16.12,23.19q4.62,14.45,4.62,40.62ZM566,265.11V252q0-14-1.14-18t-4.68-4.06q-4.36,0-5.4,3.45t-1,18.65v13.15Z" transform="translate(-189.08 -157.03)"/><path class="cls-1" d="M663.78,201.24l-1.66,23.67q9.15-25.42,26.51-26.92v63.33q-11.55,0-17,4.06A17.26,17.26,0,0,0,665,276.71q-1.24,7.26-1.25,33.42v71.06h-42V201.24Z" transform="translate(-189.08 -157.03)"/><path class="cls-2" d="M711.08,336.44v44.75h-31.7V336.44Z" transform="translate(-189.08 -157.03)"/><path class="cls-2" d="M765.13,201.24l-.73,16.58Q769,207.91,775.57,203a24.65,24.65,0,0,1,15.23-5q10.82,0,17.67,6.64a31,31,0,0,1,8.84,16.75q2,10.11,2,33.7V381.19h-42V256.57q0-18.57-.94-22.65t-5.19-4.06q-4.47,0-5.62,4.67t-1.14,25V381.19h-42V201.24Z" transform="translate(-189.08 -157.03)"/><path class="cls-2" d="M928.84,294.41H874.48v38.91c0,8.14.44,13.39,1.35,15.73a5.09,5.09,0,0,0,5.19,3.53,6.27,6.27,0,0,0,6.4-4.68q1.61-4.68,1.61-18.1V306.07h39.81v13.29q0,16.68-1.61,25.63a59.62,59.62,0,0,1-7.54,19.12,40,40,0,0,1-15,15.25q-9.09,5.08-22.81,5.09a52.59,52.59,0,0,1-23.5-5,38.81,38.81,0,0,1-15.85-13.76,56.14,56.14,0,0,1-7.84-19.26q-2.19-10.5-2.19-30.58V263.35q0-23.6,4.89-37.22t16-20.89A45.77,45.77,0,0,1,879,198q17.65,0,29.15,8.74a46,46,0,0,1,16.11,23.19q4.62,14.45,4.63,40.62Zm-42.1-29.3V252q0-14-1.14-18t-4.68-4.06q-4.36,0-5.41,3.45t-1,18.65v13.15Z" transform="translate(-189.08 -157.03)"/><path class="cls-2" d="M986.84,177.24v28.34h11.33v28.48H986.84v96.28q0,17.78,1.4,19.8t11.69,2v29H983q-14.34,0-20.48-1.56a20.5,20.5,0,0,1-10.8-7.18,26.24,26.24,0,0,1-5.83-12.89q-1.14-7.24-1.14-34.1v-91.4h-9V205.58h9V177.24Z" transform="translate(-189.08 -157.03)"/></svg>