<svg id="Layer_1" data-name="Layer 1" xmlns="http://www.w3.org/2000/svg" viewBox="0 0 538 550"><defs><style>.cls-1,.cls-2,.cls-5{fill:#29abe2;}.cls-2{opacity:0.57;}.cls-3,.cls-4{fill:#fff;}.cls-3{opacity:0.32;}.cls-4{opacity:0.56;}.cls-5{opacity:0.61;}</style></defs><title>commingsoon-project</title><rect class="cls-1" width="538" height="44"/><path class="cls-2" d="M0,44H538a0,0,0,0,1,0,0V153.33A90.67,90.67,0,0,1,447.33,244H0a0,0,0,0,1,0,0V44A0,0,0,0,1,0,44Z"/><path class="cls-2" d="M0,422H538a0,0,0,0,1,0,0v37.33A90.67,90.67,0,0,1,447.33,550H0a0,0,0,0,1,0,0V422A0,0,0,0,1,0,422Z" transform="translate(538 972) rotate(180)"/><circle class="cls-3" cx="43.5" cy="21.5" r="13.5"/><rect class="cls-3" x="65" y="15" width="65" height="14"/><rect class="cls-4" x="61" y="82" width="112" height="124" rx="16.17" ry="16.17"/><rect class="cls-4" x="238" y="126" width="226" height="15"/><rect class="cls-4" x="238" y="146" width="139" height="15"/><path class="cls-5" d="M95.51,328.34a33.5,33.5,0,0,1,37.17-51.76C85.84,289.06,95.32,327.61,95.51,328.34Z"/><rect class="cls-1" x="77" y="365" width="91" height="5"/><rect class="cls-1" x="90" y="374" width="65" height="5"/><rect class="cls-1" x="103" y="383" width="41" height="5"/><rect class="cls-1" x="193" y="365" width="91" height="5"/><rect class="cls-1" x="206" y="374" width="65" height="5"/><rect class="cls-1" x="219" y="383" width="41" height="5"/><rect class="cls-1" x="344" y="365" width="91" height="5"/><rect class="cls-1" x="357" y="374" width="65" height="5"/><rect class="cls-1" x="370" y="383" width="41" height="5"/><path class="cls-1" d="M156,308.5a33.5,33.5,0,0,1-60.49,19.85h0c-.19-.73-9.67-39.28,37.17-51.76h0A33.51,33.51,0,0,1,156,308.5Z"/><path class="cls-5" d="M211,329.76A33.5,33.5,0,0,1,248.17,278C201.33,290.48,210.81,329,211,329.76Z"/><path class="cls-1" d="M271.49,309.92A33.5,33.5,0,0,1,211,329.77h0c-.19-.73-9.67-39.28,37.17-51.76h0A33.51,33.51,0,0,1,271.49,309.92Z"/><path class="cls-5" d="M364,328.76A33.5,33.5,0,0,1,401.17,277C354.33,289.48,363.81,328,364,328.76Z"/><path class="cls-1" d="M424.49,308.92A33.5,33.5,0,0,1,364,328.77h0c-.19-.73-9.67-39.28,37.17-51.76h0A33.51,33.51,0,0,1,424.49,308.92Z"/><rect class="cls-3" x="348" y="16" width="38" height="10"/><rect class="cls-3" x="401" y="16" width="38" height="10"/><rect class="cls-3" x="461" y="16" width="38" height="10"/><polygon class="cls-3" points="130 435.26 146.38 468.45 183.01 473.78 156.5 499.61 162.76 536.09 130 518.87 97.24 536.09 103.5 499.61 76.99 473.78 113.62 468.45 130 435.26"/><polygon class="cls-3" points="314 435.26 330.38 468.45 367.01 473.78 340.5 499.61 346.76 536.09 314 518.87 281.24 536.09 287.5 499.61 260.99 473.78 297.62 468.45 314 435.26"/><polygon class="cls-3" points="475 435.26 491.38 468.45 528.01 473.78 501.5 499.61 507.76 536.09 475 518.87 442.24 536.09 448.5 499.61 421.99 473.78 458.62 468.45 475 435.26"/></svg>