<?xml version="1.0" encoding="utf-8"?>
<!-- Generator: Adobe Illustrator 19.0.0, SVG Export Plug-In . SVG Version: 6.00 Build 0)  -->
<svg version="1.1" id="Layer_1" xmlns="http://www.w3.org/2000/svg" xmlns:xlink="http://www.w3.org/1999/xlink" x="0px" y="0px"
	 viewBox="0 0 400 400" style="enable-background:new 0 0 400 400;" xml:space="preserve">
<style type="text/css">
	.st0{fill:#E7F6FD;}
	.st1{fill:#FBB021;}
	.st2{fill:#02797F;}
	.st3{fill:#5C6D77;}
	.st4{fill:#49535D;}
	.st5{fill:#E1E8F8;}
	.st6{fill:#676676;}
	.st7{fill:#D5D1D2;}
	.st8{fill:#EDECEA;}
	.st9{fill:#FFFFFF;}
	.st10{fill:#82BFEC;}
	.st11{fill:#FFD684;}
	.st12{fill:#FBA284;}
	.st13{fill:#F56C36;}
</style>
<g id="XMLID_1_">
	<circle id="XMLID_221_" class="st0" cx="192.1" cy="200.3" r="158.8"/>
	<polygon id="XMLID_224_" class="st1" points="311.9,126.8 391.1,106.5 376.1,178.5 337.6,178.7 311.9,203.5 319.1,178.7 
		296.1,178.5 	"/>
	<polygon id="XMLID_223_" class="st2" points="74,135.2 8.9,119.3 22,178.2 53.5,178 74.7,198 68.7,177.8 87.5,177.3 	"/>
	<path id="XMLID_173_" class="st3" d="M306.1,362.5h-228c-4.4,0-8-3.6-8-8v-128c0-4.4,3.6-8,8-8h228c4.4,0,8,3.6,8,8v128
		C314.1,358.9,310.5,362.5,306.1,362.5z"/>
	<rect id="XMLID_209_" x="86.1" y="234.5" class="st4" width="212" height="112"/>
	<g id="XMLID_169_">
		<rect id="XMLID_12_" x="102.1" y="106.5" class="st5" width="180" height="240"/>
		<rect id="XMLID_15_" x="102.1" y="106.5" class="st6" width="180" height="16"/>
		<rect id="XMLID_26_" x="102.1" y="122.5" class="st7" width="180" height="16"/>
		<circle id="XMLID_16_" class="st5" cx="110.1" cy="114.5" r="4"/>
		<circle id="XMLID_23_" class="st5" cx="122.1" cy="114.5" r="4"/>
		<circle id="XMLID_24_" class="st5" cx="134.1" cy="114.5" r="4"/>
		<rect id="XMLID_27_" x="106.1" y="126.5" class="st8" width="8" height="8"/>
		<rect id="XMLID_137_" x="118.1" y="126.5" class="st8" width="148" height="8"/>
		<rect id="XMLID_117_" x="270.1" y="126.5" class="st8" width="8" height="8"/>
		<rect id="XMLID_112_" x="118.1" y="138.5" class="st9" width="148" height="192"/>
		<g id="XMLID_152_">
			<rect id="XMLID_138_" x="130.1" y="150.5" class="st10" width="32" height="32"/>
			<rect id="XMLID_139_" x="130.1" y="186.5" class="st3" width="32" height="4"/>
			<rect id="XMLID_158_" x="130.1" y="194.5" class="st5" width="32" height="4"/>
			<rect id="XMLID_160_" x="130.1" y="202.5" class="st5" width="16" height="4"/>
		</g>
		<g id="XMLID_162_">
			<rect id="XMLID_182_" x="174.1" y="150.5" class="st10" width="32" height="32"/>
			<rect id="XMLID_179_" x="174.1" y="186.5" class="st3" width="32" height="4"/>
			<rect id="XMLID_171_" x="174.1" y="194.5" class="st5" width="32" height="4"/>
			<rect id="XMLID_164_" x="174.1" y="202.5" class="st5" width="16" height="4"/>
		</g>
		<g id="XMLID_185_">
			<rect id="XMLID_195_" x="218.1" y="150.5" class="st10" width="32" height="32"/>
			<rect id="XMLID_192_" x="218.1" y="186.5" class="st3" width="32" height="4"/>
			<rect id="XMLID_189_" x="218.1" y="194.5" class="st5" width="32" height="4"/>
			<rect id="XMLID_186_" x="218.1" y="202.5" class="st5" width="16" height="4"/>
		</g>
		<g id="XMLID_172_">
			<rect id="XMLID_211_" x="130.1" y="290.5" class="st5" width="32" height="12"/>
			<rect id="XMLID_212_" x="130.1" y="278.5" class="st7" width="32" height="12"/>
			<rect id="XMLID_215_" x="174.1" y="290.5" class="st5" width="32" height="12"/>
			<rect id="XMLID_230_" x="174.1" y="278.5" class="st7" width="32" height="12"/>
			<rect id="XMLID_231_" x="218.1" y="290.5" class="st5" width="32" height="12"/>
			<rect id="XMLID_232_" x="218.1" y="278.5" class="st7" width="32" height="12"/>
		</g>
		<rect id="XMLID_161_" x="118.1" y="218.5" class="st11" width="148" height="48"/>
		<rect id="XMLID_166_" x="130.1" y="230.5" class="st9" width="62" height="24"/>
		<g id="XMLID_210_">
			<rect id="XMLID_204_" x="206.1" y="230.5" class="st6" width="44" height="4"/>
			<rect id="XMLID_170_" x="206.1" y="238.5" class="st10" width="44" height="4"/>
			<rect id="XMLID_167_" x="206.1" y="246.5" class="st12" width="28" height="4"/>
		</g>
		<rect id="XMLID_168_" x="118.1" y="314.5" class="st10" width="148" height="16"/>
	</g>
	<polygon id="XMLID_207_" class="st4" points="214.1,378.5 166.1,378.5 174.1,362.5 206.1,362.5 	"/>
	<rect id="XMLID_219_" x="100.1" y="378.5" class="st3" width="180" height="8"/>
	<polygon id="XMLID_244_" class="st13" points="243.1,13.5 143.8,24 152.6,80 181.8,82.6 185.6,98 191.6,83.5 226.1,86.5 	"/>
	<g id="XMLID_2_">
		<path id="XMLID_4_" class="st1" d="M185.1,72.6c-3.2,0-5.6-0.8-7.1-2.3c-1.6-1.5-2.3-4-2.3-7.3v-5.9c0-1.6-0.4-2.8-1.1-3.6
			c-0.7-0.8-1.9-1.2-3.5-1.2h-1.5V48h1.5c0.8,0,1.5-0.1,2.1-0.3c0.6-0.2,1.1-0.4,1.4-0.8c0.4-0.4,0.6-0.8,0.8-1.4
			c0.2-0.6,0.2-1.3,0.2-2.1v-4.1c0-1.6,0.2-3,0.5-4.2c0.4-1.2,0.9-2.2,1.7-3c0.8-0.8,1.7-1.4,2.9-1.8c1.2-0.4,2.6-0.6,4.3-0.6h1.9
			v4.3h-1.5c-0.7,0-1.4,0.1-2,0.3c-0.6,0.2-1.1,0.5-1.5,0.9c-0.4,0.4-0.8,0.9-1,1.6c-0.2,0.7-0.3,1.5-0.3,2.4v4
			c0,1.2-0.1,2.1-0.3,2.9c-0.2,0.8-0.5,1.5-0.9,2c-0.4,0.5-0.9,1-1.5,1.3c-0.6,0.3-1.3,0.5-2.2,0.6c1.6,0.2,2.9,0.8,3.7,1.9
			c0.8,1.1,1.2,2.8,1.2,5.1V63c0,1,0.1,1.8,0.3,2.5c0.2,0.7,0.6,1.2,1,1.6c0.4,0.4,0.9,0.7,1.5,0.9c0.6,0.2,1.3,0.3,2,0.3h1.5v4.3
			H185.1z"/>
		<path id="XMLID_6_" class="st1" d="M199,29.8c3.2,0,5.6,0.8,7.1,2.3c1.6,1.5,2.3,4,2.3,7.3v3.9c0,1.6,0.3,2.8,1,3.6
			c0.7,0.8,1.9,1.2,3.5,1.2h1.5v4.4H213c-0.8,0-1.5,0.1-2.1,0.3c-0.6,0.2-1.1,0.4-1.4,0.8c-0.4,0.4-0.6,0.8-0.8,1.4
			c-0.2,0.6-0.2,1.3-0.2,2.1V63c0,1.6-0.2,3-0.5,4.2c-0.4,1.2-0.9,2.2-1.7,3c-0.8,0.8-1.8,1.4-2.9,1.8c-1.2,0.4-2.6,0.6-4.3,0.6
			h-1.9v-4.3h1.5c0.7,0,1.4-0.1,2-0.3c0.6-0.2,1.1-0.5,1.5-0.9c0.4-0.4,0.8-0.9,1-1.6c0.2-0.7,0.3-1.5,0.3-2.4v-6
			c0-1.2,0.1-2.1,0.3-3c0.2-0.8,0.5-1.5,0.9-2c0.4-0.5,0.9-1,1.5-1.3c0.6-0.3,1.3-0.5,2.2-0.6c-1.6-0.2-2.9-0.8-3.7-1.9
			c-0.8-1.1-1.2-2.8-1.2-5.1v-3.8c0-1-0.1-1.8-0.3-2.5c-0.2-0.7-0.6-1.2-1-1.6c-0.4-0.4-0.9-0.7-1.5-0.9c-0.6-0.2-1.3-0.3-2-0.3
			h-1.5v-4.3H199z"/>
	</g>
	<path id="XMLID_8_" class="st9" d="M39.3,164.3c0.9,0,1.7,0,2.5-0.2c0.8-0.1,1.4-0.3,2-0.6c0.6-0.3,1-0.7,1.3-1.1
		c0.3-0.4,0.5-1,0.5-1.6c0-0.4-0.1-0.8-0.2-1.1c-0.1-0.3-0.3-0.6-0.5-0.8c-0.2-0.2-0.4-0.5-0.6-0.7c-0.2-0.2-0.4-0.5-0.6-0.7
		c-0.2-0.3-0.4-0.6-0.5-0.9c-0.1-0.3-0.2-0.7-0.2-1.2c0-0.5,0.1-0.9,0.2-1.3c0.2-0.4,0.4-0.8,0.7-1.2c0.3-0.3,0.7-0.6,1.1-0.8
		c0.5-0.2,1-0.3,1.5-0.3c0.7,0,1.4,0.2,2,0.5c0.6,0.3,1.1,0.8,1.5,1.4c0.4,0.6,0.7,1.2,0.9,2c0.2,0.7,0.3,1.5,0.3,2.3
		c0,1.4-0.3,2.7-0.8,3.9c-0.5,1.2-1.3,2.3-2.3,3.2c-1,0.9-2.3,1.6-3.8,2.1c-1.5,0.5-3.3,0.8-5.3,0.8V164.3z M46.9,137.2
		c0.6,0,1.1,0.1,1.6,0.3c0.5,0.2,0.9,0.5,1.3,0.9c0.4,0.4,0.6,0.8,0.8,1.3c0.2,0.5,0.3,1,0.3,1.6c0,0.6-0.1,1.1-0.3,1.6
		c-0.2,0.5-0.5,0.9-0.8,1.3c-0.4,0.4-0.8,0.6-1.3,0.8c-0.5,0.2-1,0.3-1.6,0.3c-0.6,0-1.1-0.1-1.6-0.3c-0.5-0.2-0.9-0.5-1.3-0.8
		c-0.4-0.4-0.6-0.8-0.9-1.3c-0.2-0.5-0.3-1-0.3-1.6c0-0.5,0.1-1.1,0.3-1.6c0.2-0.5,0.5-0.9,0.9-1.3c0.4-0.4,0.8-0.6,1.3-0.9
		C45.8,137.3,46.3,137.2,46.9,137.2z"/>
	<g id="XMLID_3_">
		<g id="XMLID_174_">
			<path id="XMLID_180_" class="st11" d="M329.3,162.9l-14.6-12.3l14.6-12.3l3.4,3.4l-10.8,8.8l10.8,8.9L329.3,162.9z"/>
			<path id="XMLID_177_" class="st11" d="M338.7,167h-5.1l15.1-35.3h5.2L338.7,167z"/>
			<path id="XMLID_175_" class="st11" d="M356.9,138.2l14.6,12.3l-14.6,12.3l-3.4-3.4l10.7-8.8l-10.7-8.9L356.9,138.2z"/>
		</g>
	</g>
</g>
</svg>
