<svg id="Layer_1" data-name="Layer 1" xmlns="http://www.w3.org/2000/svg" viewBox="0 0 696.8 628.43"><defs><style>.cls-1{fill:#fff;}</style></defs><title>camera</title><path class="cls-1" d="M712.22,563.86v11.42a3.13,3.13,0,0,0-.66,2.38,9.17,9.17,0,0,1-.8,6.15,11.22,11.22,0,0,0-.79,3.06c-.35,3.29-2,5.53-5.18,6.49a6.24,6.24,0,0,0-4.42,4.92,62.49,62.49,0,0,0-1.83,11.57,138.28,138.28,0,0,0,2.79,38.45,210.37,210.37,0,0,1,5.16,46.22c0,10.56-.4,21.13-.67,31.69-.09,3.7-.29,7.39-.49,11.09-.44,7.91-.81,15.83-1.4,23.73-.87,11.59-2.09,23.15-2.4,34.78,0,2-.11,4.11-1.25,5.82a11.25,11.25,0,0,0-1.59,5.4,55.93,55.93,0,0,1-5.38,18.15,23.54,23.54,0,0,1-9.48,10.37c-9.78,5.84-20.58,8.76-31.62,10.84-9.31,1.76-18.74.93-28.13.33-3-.19-5.91-.32-8.86-.45a5.25,5.25,0,0,0-5,2.77c-2.39,4-4.62,8.07-6.61,12.28-.72,1.5-1,3,.13,4.46s.61,2.84-.52,4a28,28,0,0,1-3.33,2.93,85.16,85.16,0,0,0-15.12,14.39,101.94,101.94,0,0,1-9.36,9.91c-11.31,10.37-23,20.22-36.12,28.34a23.22,23.22,0,0,0-4,3,24.82,24.82,0,0,1-10.1,5.75,55.71,55.71,0,0,0-10.89,4.3c-6.09,3.5-12.66,5.82-19.13,8.41a102.62,102.62,0,0,1-24.84,6.24l-12.55,1.68h-18.4a13.2,13.2,0,0,0-1.51-.47,51,51,0,0,1-17.08-6.54,32,32,0,0,0-5.18-2.38c-1.27-.49-2.13-.61-2.78.86-.58,1.31-1.6,1.22-2.57.37s-2.25-1.94-3.27-3A157.52,157.52,0,0,0,377.61,920a166.14,166.14,0,0,1-18.42-14,23.56,23.56,0,0,0-4.61-3.34,43.22,43.22,0,0,1-9.94-7.29,119.15,119.15,0,0,0-10.89-8.69,64.72,64.72,0,0,1-8.36-7.2c-.41-.43-.73-1.06-1.68-1-.28,2.78,1.15,5.67-.18,8.71-1.83-1.81-1.91-4-2.53-6-1.11-3.49-1.91-4.12-5.52-3.54s-7.05,1.43-10.57,2.09c-6.25,1.19-12.1,3.77-18.32,5.1-6.41,1.37-12.79,2.88-19.14,4.48-17.51,4.43-34.72,10.15-52.7,12.57-6.4.86-12.42,3.23-18.85,4-8.49,1.05-16.87,2.91-25.3,4.39-7.28,1.28-14.67,2.06-21.8,4.08a75.37,75.37,0,0,1-15.92,2.49c-10.45.68-20.91.08-31.35-.72a8.69,8.69,0,0,1-7.36-4.76c-1.85-3.32-4-6.51-7.62-8.27a2.37,2.37,0,0,1-1-.79C83,898,79.11,894.81,75.21,891.77A101.43,101.43,0,0,1,58.5,875a110,110,0,0,0-12.83-13.6c-1.92-1.72-2-1.67-4.15-.26-.09.06-.35-.13-.71-.27.46-2.28.38-4.46-1.35-6.41-4.22-4.74-8.4-9.51-13.31-13.57-1.07-.87-2.11-2-3.44-2.21-3.72-.68-4.57-3.39-4.83-6.48-.19-2.21-.08-4.44-.1-6.66-.14-11.62-.77-23.24-1.06-34.86-.41-16.17-.55-32.34-.8-48.51a17.38,17.38,0,0,0-.5-5V617.8a15.83,15.83,0,0,0,.51-3.75,310.38,310.38,0,0,1,2.54-41.44c1.09-8.05,1.63-16.2,4.16-24,.32-1,.28-2,1-2.93,1.67-2,3.13-4.26,4.81-6.29,4.54-5.49,9.21-10.83,16.35-13.06a1.79,1.79,0,0,0,1.3-2.46c-.23-.92-.47-1.85-.64-2.78s-.26-1.77.55-2.32,1.65,0,2.29.52c1.06.87,2.06,1.82,3,2.79,2.18,2.17,2.18,2.21,4.87.93,5.63-2.69,11.23-5.46,17-7.79a4.88,4.88,0,0,0,1.39-.74c3.93-3.56,8.8-5.4,13.53-7.48,1.72-.76,3.46-1.69,5.47-.85a1.44,1.44,0,0,0,1.47-.35,10.23,10.23,0,0,1,4.45-1.55,47,47,0,0,0,6.73-1.81c2.79-1,5.44-2.37,8.4-2.84.42-.06.89-.09.94-.63.24-2.49,2.22-2.13,3.82-2.33,4.43-.57,8.76-1.36,12.34-4.34a6.48,6.48,0,0,1,3.06-1.63,7.53,7.53,0,0,0,4.06-2.22c1.05-.95,2.18-2.09,3.85-.66,1,.82.63-.2.82-.75.57-1.66,3.5-3.15,4.19-2.15,1.59,2.3,2.48.23,3.52-.34.75-.42.71-1.07,0-1.79-4.33-4.26-9.41-6.31-15.53-5.42-.94.13-1.88.29-2.83.37-3.21.27-3.25.24-4.12-2.87-.37-1.33-.71-2.66-2-3.5a29.21,29.21,0,0,1-7-7.28c-5.26-7.11-9-15-9.21-23.9-.28-11.52-.49-23,.43-34.56.6-7.48,2.77-14.29,7.46-20.21,1.83-2.32,3.68-4.65,5.65-6.85a185.83,185.83,0,0,1,22.07-21.39,4.91,4.91,0,0,0,2-3.75c.14-2.6.44-2.86,3-2.93a12,12,0,0,0,4.9-1.1,27.34,27.34,0,0,1,7.58-2.23,354.12,354.12,0,0,0,44.8-10.2c1.22-.36,2.43-.84,3.64,0,.51.36,1,.12,1.49-.07a18.6,18.6,0,0,1,6.25-.85,29.61,29.61,0,0,0,7.86-.84,40,40,0,0,1,12.48-1.91,18.07,18.07,0,0,0,4.65-.87c2.47-.61,4.9-1.34,7.35-2a35.09,35.09,0,0,1,11-1.07,52.35,52.35,0,0,0,20.62-2.58,3.16,3.16,0,0,1,1.84-.36c2.7.69,5.46.51,8.2.65a2.85,2.85,0,0,1,2.77,1.77,6.91,6.91,0,0,0,3.81,3.65c5.17,2.36,9.54,6.31,15.19,7.75a5.91,5.91,0,0,1,2.22,1.19c4.76,4,10.46,6.36,16,9,8.39,4,16.84,7.9,24.41,13.42a7.76,7.76,0,0,0,6.26,1.55c2.23-.42,2.66-.05,3.36,2.28A7.79,7.79,0,0,0,371,371.9c1.13.78,2.35,1.41,3.55,2.08,4.23,2.36,8.77,4.24,11.67,8.47a2.73,2.73,0,0,0,3.37,1.08,2.56,2.56,0,0,1,2.94.61c1.6,1.95,4,2.7,5.89,4.09a106.81,106.81,0,0,0,10.15,6.47,21.94,21.94,0,0,1,10.14,11.76c.3.8.24,2,1.48,2.22,1-.53,1.38-1.59,2-2.41a13,13,0,0,1,3.84-3.74c6.62-3.65,13.53-6.79,21.19-6.95,13.21-.27,26.44-.53,39.63.58,10.41.86,19.79,4.27,27.75,11.19a17.49,17.49,0,0,1,5,6.07c1.06,2.4,1.33,2.48,3.88,1.91.92-.21,1.83-.51,2.74-.79a3.35,3.35,0,0,0,2.52-3.26c.11-1.69.25-3.38.5-5,1.18-7.64,4.43-13.79,12.06-16.87a60.17,60.17,0,0,1,7.44-2.71c3.49-.88,7-1.71,10.48-2.54a17.69,17.69,0,0,0,5.57-2.21,6.57,6.57,0,0,0,3.28-4.11c.53-2.58,2.33-3.68,4.66-4.1a35.92,35.92,0,0,1,13.55-.35,10.11,10.11,0,0,1,8.55,9.6,5.68,5.68,0,0,0,3.56,5.43,89.19,89.19,0,0,1,13,8,21.9,21.9,0,0,0,4.07,2.43,7.69,7.69,0,0,1,3.77,3.22,6.68,6.68,0,0,0,4.15,3.2,17.06,17.06,0,0,1,5.83,3.16c4.82,3.62,9.64,7.23,14.42,10.9a53.32,53.32,0,0,1,5.3,4.54,24.88,24.88,0,0,0,10.72,6.51,7.06,7.06,0,0,1,4.14,3.2,40.33,40.33,0,0,0,5.21,6.78c1,1,1.91,2.14,3.26,2.44,3.29.75,5.12,3.16,7,5.59,6.69,8.51,10.85,18.36,14.46,28.39,2.19,6.07,4.27,12.16,6.81,18.09a97.44,97.44,0,0,1,7,24.65c1.55,11,2.68,22,3.67,33.09C711.51,556.3,711.87,560.08,712.22,563.86Zm-377.59-5.07a18,18,0,0,0-4.44,1.67,232.49,232.49,0,0,0-28.78,16,123.41,123.41,0,0,0-18.8,14.5c-5.29,5-10.72,9.9-16.23,14.67a92.49,92.49,0,0,0-11.14,11.68c-5.37,6.57-9.58,13.92-14.51,20.79A113.71,113.71,0,0,0,229.49,658c-1.56,3.45-3.31,6.87-3.35,10.82a3,3,0,0,1-.49,1.48c-2,3.26-2.62,6.91-3.19,10.56a200.56,200.56,0,0,0-1.86,38.25,22.75,22.75,0,0,0,.34,2.83c1.52,9.06,3.4,18.06,4.46,27.21a63.61,63.61,0,0,0,1.67,10.26c.43-2.93-.55-5.94.91-8.76a1,1,0,0,0-.17-.85c-1.95-2.36-1.88-5-1.34-7.81a2.91,2.91,0,0,0,0-1.55c-.84-2-.59-4.17-.58-6.27a227.47,227.47,0,0,1,2.28-27.46c1-7.56,2-15.18,4.31-22.39,5.05-15.45,10.33-30.87,18.9-44.88,1.82-3,3.16-6.28,5.61-8.79s4.13-5.75,7.59-7.21c.81-.34,1.32-1.34,2-2,4.35-4.25,7.19-9.86,12.27-13.44a4.41,4.41,0,0,0,.6-.74,190.74,190.74,0,0,1,18.11-18.63c3.33-2.94,6.65-5.87,9.72-9.09a8.39,8.39,0,0,1,2.46-2,34.58,34.58,0,0,0,12.19-8.82c.81-1,1.86-2.77,3.36-.51.25.37.81.15,1.18-.05,2-1.11,4-2.24,6.29-3.56a2.12,2.12,0,0,0-2-.2,15.36,15.36,0,0,0-3.28,1.91c-.37.24-.8.38-1.13,0a1,1,0,0,1,.07-1.17,9.17,9.17,0,0,1,3.46-2.71c1.77-1,3.57-1.88,4.74-3.61,1.67-.26,3.33-.61,5-.76a47.53,47.53,0,0,0,13.28-2.87,63.2,63.2,0,0,1,14.15-3.27c4.45-.65,8.92-1.29,13.37-2a278.53,278.53,0,0,1,44.21-3.15c4.86.05,9.71.31,14.57.43.79,0,1.71.37,2.39-.69a13.31,13.31,0,0,0-9.69-5.2,83,83,0,0,0-12-.69A339,339,0,0,0,383.62,544c-10.5,1.58-20.61,4.64-30.75,7.58A95.22,95.22,0,0,0,334.63,558.79Zm363.82-50.62-.3-.33c-.29-.87-1-1.23-1.78-1.63a3.92,3.92,0,0,1-2-5.22,2.57,2.57,0,0,0-.73-2.59,14.3,14.3,0,0,1-2.75-4.6,31.73,31.73,0,0,0-2.2-5.24c-.86-1.79-2.36-3.45-2.67-5.23a15.41,15.41,0,0,0-3.25-7.26,3.28,3.28,0,0,1-1-1.93c0-1.68-.93-3-1.62-4.41-.78-1.61-1.86-3.09-2.25-4.88-.28-1.27-.78-2.59.79-3.61a1.61,1.61,0,0,0-1.7.45c-1.33,1.15-2.11.92-2.41-.7-.22-1.22.08-2.09,1.5-2.24.5-.06.77-.4.56-.9s-.56-.8-1.2-.35c-1.31.92-2.36.74-2.94-.9-.4-1.13-1.36-1.18-2.35-1.14a17.39,17.39,0,0,0-4.93,1.12c-8.12,2.73-16.09,5.87-24.05,9-.66.26-1.47.41-1.65,1.28.14.72.77,1,1.21,1.43,2.52,2.42,5.5,4.27,8.16,6.5,3.58,3,6.37,6.76,9.42,10.28,5.32,6.16,7.92,13.42,8.86,21.35.55,4.56.51,9.16-2,13.23-8.83,14-22.68,22.74-41.1,19.16-1.45-.28-2.91-.55-4.37-.81a62.91,62.91,0,0,1-27.47-12.33,1.54,1.54,0,0,1-.7-1c-.28-1.91-1.6-3.18-2.77-4.53A48.92,48.92,0,0,1,578.32,500c-1.29-5-2.46-10.08-.27-15.23.66-1.55,0-2.12-1.76-1.83s-3.31.71-5,1.06q-13.33,2.88-26.66,5.76c-.91.19-2.08.17-2.36,1.26s.77,1.66,1.44,2.28A64.8,64.8,0,0,0,553.86,501a82.61,82.61,0,0,1,10.93,8.13c2.08,1.8,4.13,3.64,6.25,5.38,8.79,7.24,18.8,12.56,28.54,18.31,4.73,2.8,9.48,5.67,14.69,7.46,9.81,3.37,19.37,7.37,29,11.09a38.31,38.31,0,0,0,7.62,2.11c8.36,1.31,16.78,2.08,25.21,2.79,10.29.87,16.92-4.67,22.38-12.37a7.68,7.68,0,0,0,1.26-3.22c.72-5.22,1.8-10.45-.14-15.66a4.37,4.37,0,0,1,.05-2.81c.14-.49.34-1.26.91-1.08,1.7.51,1.18-.58,1-1.31C700.57,515.92,699.5,512.05,698.45,508.17Zm-459,67.73a19.87,19.87,0,0,1-1.91,4.62,24.2,24.2,0,0,0-2.81,8.29,2.25,2.25,0,0,0,1.39-1.15,179.64,179.64,0,0,1,27.05-30.19c8.19-7.4,16.83-14.07,27.15-18.45a206.52,206.52,0,0,1,48-14.06c.8-.13,1.69,0,2.37-.81-2.4,0-4.7,0-7,0s-4.55.69-6.52-1.11a3,3,0,0,1,2.47-.93c4.11-.32,8.18-1,12.32-1,8.15,0,16.29,0,24.43,0A76,76,0,0,0,380.88,520a4.54,4.54,0,0,1,1.56,0q8.28,1.37,16.55,2.76c1.15.2,2.38.51,3.41-.16,2-1.28,3.83-.69,5.74.09,2.94,1.19,5.89,2.35,8.83,3.53a4,4,0,0,1,1.41.69c1.74,1.86,4.06,2.62,6.34,3.46,9.6,3.55,18.55,8.19,26.2,15.15a26.77,26.77,0,0,0,7.55,5.2,9.79,9.79,0,0,1,4.8,4.4,23.83,23.83,0,0,0,3.69,5.48,24,24,0,0,1,4.68,5.93,5.7,5.7,0,0,0,3.1,2.54c2.24.91,4.41,2,6.55,3.14.92.49,2.19,1.47,1.57,2.42-1.19,1.84.16,2.46,1.11,3.3,4.46,4,10.14,6.21,14.7,10.21,2.45,2.15,5.61,3.69,8.22,5.85,1.95,1.62,4,3.15,6.05,4.62a14.61,14.61,0,0,0,10.6,2.31c2.06-.26,2.45-.87,2.28-3q-.74-8.53-.92-17.1c-.34-15-.54-30-1.26-45-.11-2.41,0-4.82-1.52-7-.64-.88-.67-2.18-1.24-3.22s-.23-1.93,1.19-1.54c1.14.31,1.58-.16,1.75-1.15a20.6,20.6,0,0,0,.31-2.19c.44-6.33.85-12.66,1.31-19,.15-2.11.43-4.2.57-6.31.17-2.39-.16-2.67-2.42-2.23-1.77.34-3.51.78-5.29,1.07-10.75,1.74-21.55,3.11-32.36,4.4-6.09.73-12.13,1.86-18.23,2.45-16.72,1.63-33.48,3-50.21,4.61a167.18,167.18,0,0,0-16.95,2.34,8.84,8.84,0,0,0-4.61,2c-3,2.89-6.78,3.79-10.79,3.83A54.72,54.72,0,0,0,374.77,515a290.29,290.29,0,0,1-37,5.4c-3.47.23-6.93.76-10.39,1.23-1.2.17-2.45.21-2.48,2.14,0,1.17-1.41,1.39-2.5,1.47s-2.34-.06-3.32.77a10.76,10.76,0,0,1-4.66,1.88c-3.19.76-6.49,1.28-9.41,2.78-5.47,2.8-11.51,4.18-17,6.93a2.7,2.7,0,0,1-3.15,0c1.6-2.32,4.91-2.42,6.41-5.07a10.09,10.09,0,0,0-4.42,0c-9.69,2.19-19.39,4.32-28.76,7.76a10.52,10.52,0,0,0-6,5.23,193.4,193.4,0,0,0-11.94,27.63,28,28,0,0,0-.69,2.77ZM196.74,771.73c-.38,1.45.36,2.46.61,3.55.21.93.53,1.83.71,2.76a1,1,0,0,1-1.92.82,8.79,8.79,0,0,1-1.2-2.21,50,50,0,0,1-1.34-5.22,156.1,156.1,0,0,1-2.11-18.57,394.63,394.63,0,0,1-.17-46.27c.2-4.43.7-8.86,1.33-13.25,1.72-12,3.31-24.09,7-35.74.34-1.07.4-2.16-.65-2.87-2-1.35-1.81-3.18-1.19-5.09a71,71,0,0,1,2.62-7.47,60.78,60.78,0,0,0,3.91-13.34c2.59-12.77,6.93-25,11-37.39,2.52-7.63,5.7-15,7.7-22.83a40,40,0,0,1,5-12.25A15.09,15.09,0,0,0,230,551c.36-1.75-.22-2.3-2.05-2.08-.63.08-1.24.29-1.86.43L214.31,552c-13.41,3-27,5-40.5,7.69a74.73,74.73,0,0,1-17.31,1.66c-8.56-.28-17.11-.7-25.67-1-3.35-.1-6.76-.71-10,.72a1.59,1.59,0,0,1-1.23,0c-3.12-1.68-6.22-1.25-9.34,0a1.83,1.83,0,0,1-.62.09c-5.39.13-9.07,3-11.91,7.3-2.22,3.37-3.86,7-5.74,10.59a12.15,12.15,0,0,0-1.42,6.09c.21,11.2.34,22.41.52,33.61.06,3.91.15,7.82.47,11.72.39,4.85.7,9.71.72,14.57a134.83,134.83,0,0,0,1.11,16.44c.11.83.51,1.81,0,2.48-1.17,1.64-.71,3.15-.1,4.78a12.07,12.07,0,0,1,.39,2.5c.81,6.52.62,13.09,1,19.63a62.37,62.37,0,0,1-.16,7.61c-.15,2.53-1.18,5.06.31,7.57.33.57.13,1.46.15,2.2,0,1.79,0,3.59.08,5.39.76,19,1.52,38,1.83,57.05,0,1.59.19,3.17.25,4.75.39,10,1.29,20,1.45,30.09.43,27.79-.36,55.61,2.08,83.36.48,5.37.45,10.77,1.17,16.12.57,4.22,1.12,4.82,5.2,5.37,6.67.89,13.32.09,19.93-.55,7.15-.69,14.25-1.84,21.38-2.75,21.82-2.78,43.57-5.88,65-10.79,16.28-3.73,32.55-7.47,48.59-12.17,3-.87,5.72-2.89,9.11-2.14a1.46,1.46,0,0,0,.87-.33c3.87-2.42,8.43-2.71,12.68-3.6a214.22,214.22,0,0,0,24.47-6.57c.85-.29,1.9-.36,2.39-1.52a6.61,6.61,0,0,0-3.06-2.55c-.66-.3-1.43-.42-1.85-1.13-2-3.46-5.2-5.81-7.85-8.67-1-1.08-2-2.22-2.88-3.37a1.92,1.92,0,0,1-.49-1.46c.07-.51,1.51-.56.51-1.35-.55-.43-.92.18-1.31.53-.91.84-1.76.22-2.62-.16a131.88,131.88,0,0,0-24-8,4.27,4.27,0,0,1-2-.77A44.66,44.66,0,0,0,255,836.13c-3.6-1.72-6.1-4.2-8.66-7a117.21,117.21,0,0,0-13.67-12.28C219,806,207.4,793.48,200.19,777.32c-.6-1.35-1.33-2.65-2-4A3,3,0,0,0,196.74,771.73ZM638,841.2c13.47,1.14,26.44-3.75,39.28-9.07a18.92,18.92,0,0,0,9.18-8,48.64,48.64,0,0,0,6.63-18.69c.69-5.35.78-10.76,1.88-16.05a66.57,66.57,0,0,0,1.27-9.74c.49-8.12.82-16.26,1.51-24.36,1.22-14.33,1.85-28.69,2.17-43.06.32-14.17-.19-28.33-.59-42.49,0-1-.16-2.11-.29-3.16a165.25,165.25,0,0,0-4.53-22.36C691,631,691,617.68,693.42,604.3c.28-1.56.6-3.12.77-4.7.27-2.47-.26-3.1-2.68-3.14-1.58,0-3.17.12-4.75.24-14,1.13-27.86.64-41.45-3.53-6.77-2.08-13.54-4.17-20.18-6.62a173,173,0,0,1-44.32-23.64,181,181,0,0,0-30.61-18.52,20.77,20.77,0,0,1-2.67-1.7c-4-2.77-8-5.58-12-8.3-1.67-1.12-2.27-.83-2.24,1.22.06,5.18-.21,10.35-.28,15.53-.15,9.47,2.25,19-.12,28.42a5.86,5.86,0,0,0,0,1.26c-.24,8.89.35,17.76.67,26.63a30.24,30.24,0,0,0,.45,3.13,5.06,5.06,0,0,0,2.87,3.93c1,.55,2.06,1.08,3.12,1.57,8.08,3.7,16,7.79,23.74,12.07a81,81,0,0,1,10.59,6.33c8.29,6.37,16.85,12.43,24.62,19.47a12.05,12.05,0,0,0,4.83,2.94,3,3,0,0,1,2.07,1.33c1.73,3.27,4.39,5.94,5.77,9.44a17.72,17.72,0,0,0,2.26,3.81c3.88,5.28,6.39,11.44,10.67,16.47a12.2,12.2,0,0,1,1.66,3.06c1.38,3.08,2.8,6.16,4,9.31,6.2,15.92,9.69,32.34,9.33,49.53-.15,7.19-.33,14.38-.86,21.54a143.83,143.83,0,0,1-2.11,16.67c-1.69,8.68-5,16.79-8.73,24.76s-7.7,15.77-10.78,24c-.95,2.56-.7,3.1,2.05,3.47.21,0,.42,0,.63.05C625.51,840.88,631.31,841.19,638,841.2ZM448.1,572.12c-1.78-.16-3.4-1.37-4.86.7a1.33,1.33,0,0,1-2.18-.26c-.6-1.15-1.53-1-2.44-1-6.76,0-13.53.06-20.3.16-1.2,0-2.87-.28-3.34,1.13-.4,1.2,1.06,1.93,1.82,2.75,1.28,1.4,2.75,2.65,3.95,4.12s.79,2.46-.78,3.32a4,4,0,0,1-3.93-.23,27.74,27.74,0,0,1-9-6.93,4.84,4.84,0,0,0-6.09-1.62c-10.34,3.74-20.75,7.3-31.14,10.9a187.53,187.53,0,0,0-32.78,15c-8.61,5-16.41,11.18-24.65,16.73-4.86,3.28-4.75,5.36-.26,9.42a9.4,9.4,0,0,1,2.68,3.48c.45,1.14.69,2.26-.8,2.93-1,.43-1.23,1.36-1.54,2.28a14.63,14.63,0,0,1-1.09,2.62c-.49.85-1.24,1.27-2,.21a4.06,4.06,0,0,0-2.18-1.73,13,13,0,0,1-6.38-5c-1.35-1.81-1.72-1.87-3.48-.25-2.17,2-4.25,4.11-6.31,6.24-1.71,1.76-3.19,3.68-3.29,6.32a2.1,2.1,0,0,1-1.9,2.21c-2.9.27-4.38,2.32-5.84,4.42-4.12,5.91-7.88,12-11.4,18.31a91.7,91.7,0,0,0-11.07,32.21c-.46,3.24-1,6.48-1.35,9.74-.25,2.16.14,2.88,1.84,3,3.53.23,6.09,2.18,8.62,4.31,1.13,1,2.28,1.88,3.46,2.78a7.65,7.65,0,0,0,7.73,1.42,10,10,0,0,1,2.16-.5c1.22-.16,2.42,0,3,1.26s-.29,2.21-1.18,3a10.48,10.48,0,0,1-1.57,1.05,13.43,13.43,0,0,0-2.83,2c-2.9,3-3,3-6.48.57-.69-.48-1.39-1-2.05-1.49-3.56-2.83-7.09-5.69-10.66-8.51-1.6-1.25-2.29-1.09-2.53.79-.5,3.76-1.26,7.53-.67,11.36,1,6.17,1.22,12.41,1.62,18.63.63,10.12.9,20.28,2,30.37a149.39,149.39,0,0,0,5.9,28.53c.41,1.3.67,2.77,1.65,3.74,3,3,4,6.93,5.05,10.78,1,3.45,1.8,7,2.64,10.45a5.89,5.89,0,0,0,4,4.49c4.28,1.52,8.48,3.3,12.81,4.66,6,1.9,11.73,4.25,16.52,8.48.56.49,1.2,1.29,2.31.56A27.52,27.52,0,0,0,308,847a33.8,33.8,0,0,1-2.08-10.53q-.4-15.54.16-31.08.39-11.57,1.81-23.07c.57-4.57,2.36-8.75,3.68-13.08,3.47-11.44,6.66-23,9.65-34.52.66-2.56,1.25-5.16,3.06-7.23a2.49,2.49,0,0,0,.36-2.6,8,8,0,0,1,3.2-8.22A2.28,2.28,0,0,0,329,714a5.17,5.17,0,0,1,1.81-5.13,5.83,5.83,0,0,0,1.47-2.74,49.86,49.86,0,0,1,9.33-15.73,3.51,3.51,0,0,0,1.16-1.84c.35-2.85,2.79-4.62,3.73-7.19a3.24,3.24,0,0,1,1.54-1.54,5.44,5.44,0,0,0,2.86-3.18,12.15,12.15,0,0,1,1.48-2.43,240.76,240.76,0,0,1,25.05-29.87c2.53-2.54,5.35-4.79,8-7.25,1.62-1.51,3-3.3,5.22-4,.45-.14,1.06-.43.5-1.11-1.32-1.62.21-1.72,1-1.44,1.85.65,2.87-.26,4.19-1.29a11.1,11.1,0,0,1,3.4-2.26c3.23-1,6.18-2.73,9.26-4.14,9.91-4.52,19.8-9.08,30.46-11.64a16.19,16.19,0,0,0,5.4-2.26c-.45-1.3-1.42-1.63-2.19-2.12a46,46,0,0,1-12.12-12,8.1,8.1,0,0,1-1.79-3.67c-.26-2,1.06-3,2.94-2.31a11.42,11.42,0,0,1,3.41,2.27,64.31,64.31,0,0,1,9,9.39c1.51,1.93,3.1,3.35,5.66,3.53.92.06,2.06.16,2.54,1.07,1,2,2.53,1.38,4.08,1,5.91-1.63,11.81-3.31,18-3.8a9,9,0,0,0,2.15-.54c.77-.26,1-.82.4-1.44a12.15,12.15,0,0,0-1.45-1.22l-7.11-5.85c-.95-.78-1.71-1.62-.91-3a2.89,2.89,0,0,1,3.76-1.36,12.58,12.58,0,0,1,2.1,1.4c3.19,2.45,6.38,4.89,9.53,7.38a8.49,8.49,0,0,0,5.49,2.16c1.21,0,2.88.48,3.36-1,.41-1.26-1.1-1.93-2-2.6A60.4,60.4,0,0,1,477.36,584c-.86-1.2-1.9-2.26-2.86-3.39a32.08,32.08,0,0,0-11.19-8.17,7.47,7.47,0,0,0-3-.81c-1.83,0-2.31.66-1.48,2.36a16.4,16.4,0,0,0,5.8,6.59,10.1,10.1,0,0,1,3.43,3.23,2.18,2.18,0,0,1,.23,2.39,2.11,2.11,0,0,1-2.51.86,12.71,12.71,0,0,1-2.66-1,24.42,24.42,0,0,1-6.46-4.55c-3.08-3.09-6.2-6.06-10.43-7.56-.13,0-.19-.34-.31-.58C446.2,572.33,447.39,572.91,448.1,572.12ZM379.5,912.85c.1-1.24-.75-1.84-1.27-2.57a65.35,65.35,0,0,1-5-8.08,235.53,235.53,0,0,1-10.57-24.1,70.69,70.69,0,0,1-4.05-19.82c-.77-10.77-.69-21.56-.66-32.34a101.62,101.62,0,0,1,.84-11.7c1.76-14.76,5.5-29.11,10.14-43.15,4-12,8.37-24,14.93-34.93,1.62-2.72,3.09-5.53,4.63-8.31a3.71,3.71,0,0,0,.54-3c-.58-2.29.52-3.68,3.08-4.41.46-.14,1-.38.65-.73-1.52-1.67-.15-2.73.75-3.79,9.66-11.35,19.43-22.59,30.41-32.75,5.62-5.21,11.72-9.88,16.83-15.73,4.45-5.09,10.23-8.87,16.36-11.84s11.89-6,17.9-8.89c6.75-3.22,13.24-7.08,20.62-8.84a12.69,12.69,0,0,0,1.78-.66,40.45,40.45,0,0,1,9.47-2.55,71.78,71.78,0,0,0,16.59-4.09,11.91,11.91,0,0,1,4-.82,8.42,8.42,0,0,0,5-1.88,6,6,0,0,0-2.73-1.9,27.73,27.73,0,0,1-4.42-2.47c-6.63-4.88-13.92-8.88-19.79-14.78a7.76,7.76,0,0,0-6.73-2.14,82.53,82.53,0,0,0-13.42,2.28c-4.56,1.35-9.12,2.72-13.72,3.94-9,2.38-18,4.65-27,7C419.9,626.25,398.38,638.64,379,655a97.07,97.07,0,0,0-24.39,30.9c-3.14,6.23-6.3,12.45-9.08,18.85-6.6,15.15-12.42,30.56-16.08,46.72-.91,4-1.87,8-3.13,12a182.49,182.49,0,0,0-5.82,23.7c-1,5.61-2.06,11.25-1.4,17,1.17,10.09,1.53,20.23,1.81,30.37q.25,9.51.69,19c.2,4.42,1.1,8.62,4.57,11.79a3.74,3.74,0,0,1,1,3.22,5.38,5.38,0,0,0,1.75,4.26c.82.82,1.64,1.65,2.51,2.42,8.09,7.13,16,14.41,24.75,20.8,6.82,5,13.42,10.29,20.35,15.14A7.22,7.22,0,0,0,379.5,912.85ZM441.37,936a52.21,52.21,0,0,1-10.69-4.19c-.94-.52-2.72-1-2.12-2.27s2.09-.18,3,.27a42.91,42.91,0,0,0,12.71,3.82c.83.12,1.67.24,2.51.34,1.25.15,1.78,1.94,2.82,1.75s2.07-.94,3.27-.75c2.71.42,4.44-.83,5.63-3.14a14.85,14.85,0,0,1,1.32-2.16c.73-1,1.13-2.79,2.52-2.44s.57,2,.65,3.09c.16,2.43.77,3.07,3.15,2.66a53.83,53.83,0,0,0,5.53-1.38c11.73-3.34,22.78-8.46,34.1-12.89a70.87,70.87,0,0,0,14-6.77c4.2-2.83,9.2-4.68,12.08-9.27a7.19,7.19,0,0,1,1.94-1.62,63.94,63.94,0,0,1,7.43-4.84,4.42,4.42,0,0,0,2.48-2.32c.32-1,1.16-1.46,1.89-2.07,12.18-10.1,22.51-22,32.59-34.09.4-.49.75-1,1.11-1.55a5.51,5.51,0,0,0,1.2-4.75c-.13-.49-.38-1.2.27-1.38,1.38-.4,1.38-3.36,3.69-2,.13.07.6-.24.76-.47,1.52-2.16,3.07-4.3,4.47-6.54.59-1-.34-2.92-1.52-3.46-1.43-.64-1.85.54-2.31,1.46-.75,1.51-1.42,3.07-2.15,4.59a1,1,0,0,1-1,.6c-.71-.12-.72-.75-.66-1.24a20.42,20.42,0,0,1,2.44-7.16c1.1-2.05,1.74-2.18,3.78-1.05.37.2.71.46,1.06.69,1.11.73,2,.84,2.22-.81a1.85,1.85,0,0,1,.88-1.26c1.67-1.09,2.53-2.82,3.38-4.51q2.72-5.39,5.26-10.85c2.83-6.14,5.25-12.47,8.46-18.44a38.86,38.86,0,0,0,3.68-9.09c.29-1.22.38-3.27,2.74-2.25.37.16.57-.2.65-.48,1.14-4,2.47-8,2.65-12.29-.59,1.66-.88,3.39-1.41,5s-.79,3.56-2.56,4.75c-.54-1.45,0-2.56.15-3.69a105.68,105.68,0,0,0,.17-40,244.37,244.37,0,0,0-11.21-39.94,46.4,46.4,0,0,0-11.9-17.75c-7.08-6.56-14.89-11.81-24.5-14-6.84-1.54-13.07-4.77-19.55-7.32-.48-.19-1-.46-.84-1.13s.8-.69,1.29-.62a14.32,14.32,0,0,1,2.77.65c2.47.93,4.94,1.89,7.35,3a46.32,46.32,0,0,0,10.86,3.41,28.36,28.36,0,0,1,11.9,5c1.35,1,2.74,1.86,4.69,3.17a8.63,8.63,0,0,0-2.39-3,57.77,57.77,0,0,0-12.86-9.19,73.16,73.16,0,0,1-7.15-4.11c-3.61-2.5-7.63-4-11.66-5.65a33.32,33.32,0,0,0-19.3-1.48,101.36,101.36,0,0,0-22.67,7q-13.86,6.3-27.58,12.89c-6,2.9-11.35,6.9-16.73,10.73-4.8,3.42-9.64,6.79-14.47,10.18-12.11,8.52-23.73,17.7-34,28.47-1.45,1.53-2.84,3.13-4.19,4.76s-2.85,2.92-2.31,5.28a1.27,1.27,0,0,1-.48,1.1c-1.55.74-1.66,2.34-2.32,3.62-1.76,3.4-3.64,6.92-6.73,9.11-3.59,2.54-5.65,6-7.4,9.67-7.22,15.32-14,30.8-16.58,47.75-2.2,14.27-3.25,28.53-1,42.91,1.64,10.45,3.22,20.9,6.46,31,1.09,3.39,1.79,7,4.27,9.8a1.93,1.93,0,0,1,.44,1.15c.08,3.4,2.05,5.93,3.82,8.56a86.32,86.32,0,0,0,7.73,9.64c.73.81,1.95,1.64,1.46,2.94s.16,1.84.72,2.56c4.19,5.32,8.5,10.53,13.81,14.81a26.08,26.08,0,0,0,10.34,5.34,27.12,27.12,0,0,1,6.22,2.33A15.66,15.66,0,0,0,441.37,936Zm-177-455.41c1.44,1.08,1.37,2.45,1.5,3.65a74.74,74.74,0,0,1,0,14.88c-.28,3.16-.65,6.31-.82,9.47-.15,2.8.43,3.24,3.13,2.62,4.22-1,8.42-2.07,12.65-3,8.77-1.91,17.71-3.15,26-6.94a5.47,5.47,0,0,1,1.22-.32c14.09-2.82,28.17-5.73,42.29-8.42,11.63-2.21,23.31-4.13,35-6.24,5-.91,9.81-2.55,14.85-3.27,7.95-1.14,15.92-2.15,23.81-3.68,7.26-1.41,14.43-3.36,21.83-4A5.26,5.26,0,0,0,447,475c1.17-.38,1.57-1.18.81-2.16-1.57-2-2.32-4.51-3.74-6.62-5.63-8.36-10-17.4-14.57-26.35a357.14,357.14,0,0,0-18.65-32.8,7.43,7.43,0,0,0-7.35-3.72c-9.94.43-19.8,1.58-29.65,2.86-2.72.36-5.62.2-8.14,1.1-4,1.41-8.12,1.38-12.16,1.79a193.47,193.47,0,0,0-19.76,2.72c-7.14,1.47-14.29,2.84-21.12,5.58a55,55,0,0,1-13.18,3.36,167.51,167.51,0,0,0-17.94,4c-5.06,1.28-7.77,5.21-11,8.56a3.46,3.46,0,0,0-.54,1.78q-.3,1.89-.48,3.78c-1.16,12.85-3.45,25.56-5.6,38.26q-2.57,15-3.9,30.16a29,29,0,0,0,0,3.49c0,.64.12,1.36.92,1.44s1-.61,1.14-1.25c.26-2,.6-4,.68-6,.29-6.66.46-13.32.71-20C263.5,483.62,263.32,482.1,264.41,480.55Zm-51.63-87.44.15-.42q-6.1-3.68-12.21-7.35c-3.36-2-3.72-2-6.7.48a37.28,37.28,0,0,0-4.77,4.63C178.81,403,170.35,416.67,166.94,433c-1.67,8-2.52,16.06-3.58,24.13a37.53,37.53,0,0,0,2,17.75c.6,1.69,1,3.45,1.48,5.18a5.93,5.93,0,0,1,0,4.05c-.67,1.54,0,2.4,1.33,3,.78.34,1.54.7,2.31,1,15.95,7.05,32,13.85,46.81,23.21.81.51,1.66.94,2.51,1.37l25.5,12.81c.47.24.95.46,1.44.68,1.38.62,2.25.16,2.58-1.29.45-2.06.89-4.13,1.3-6.21,1.76-9,2.61-18.2,4.13-27.26,1.88-11.15,3.86-22.29,5.64-33.45,1-6.47,1.09-13.05,2.33-19.51.39-2.06.38-4.2.7-6.29.61-4-1.22-6.37-4.67-8.38-8.65-5.05-17.55-9.72-25.72-15.58-.34-.24-.73-.61-1.09-.61-4.15,0-5.76-4.66-9.6-5.2-.08,0-.14-.16-.21-.23a31.65,31.65,0,0,0-12.15-6.62,5.86,5.86,0,0,1-3.18-1.95c-.41-.52-.74-1.1-.3-1.72a1.22,1.22,0,0,1,1.44-.34C209.61,392,211.19,392.58,212.78,393.11ZM90.7,783.73c-.14-3.12-.37-6-.39-8.79-.1-13.22-.07-26.43-.24-39.65-.09-6.87-.42-13.73-1-20.58s-1.23-13.47-1.59-20.23c-.29-5.6-.43-11.2-.64-16.79-.53-14.58-1.2-29.15-1.57-43.74q-.48-19.34-.42-38.69c0-7.48-.29-15.06,2.91-22.15a6.06,6.06,0,0,0,.41-1.53c.29-1.56,0-3.48,2.55-3.46.28,0,.61-.55.84-.89a58.18,58.18,0,0,1,6.48-7.8c1.27-1.35,1.14-1.74-.55-2.45a28,28,0,0,0-7.73-1.6c-2.5-.3-5.17-.26-7.47-.92s-4.28-3-6.51-4.38C68,545.26,60.43,540.27,53.81,534a13.21,13.21,0,0,0-1.53-1.14,6.54,6.54,0,0,0-6-.81,16.17,16.17,0,0,0-5,2.72,49,49,0,0,0-8.67,8.78,9.15,9.15,0,0,0-1.63,2.7c-1.21,3.7-2.92,7.24-3.52,11.15a35.52,35.52,0,0,1-2.28,8.24,13.23,13.23,0,0,0-.68,3.08,150.07,150.07,0,0,0-1.39,21.5,13.29,13.29,0,0,1-.73,5.62,3.63,3.63,0,0,0,.26,3.34,4.18,4.18,0,0,1,.19,4c-1.1,2-1.08,4.06-1,6.16,0,1.17-.7,2.91,1.66,2.82.18,0,.5.64.57,1a25.43,25.43,0,0,1-.15,8.83c-.08.42-.25.82-.76.88s-.74-.31-.95-.68c-.63-1.14-.45-2.44-.68-3.57v36.83c.25-.54.27-1,.75-1.14s.76.28.84.73a5.41,5.41,0,0,1-.42,3.71,6.39,6.39,0,0,0-.89,3.32L22,680.74a4.46,4.46,0,0,0,2.09,4,13.07,13.07,0,0,1,4.33,5,13.75,13.75,0,0,0,2.06,2.8c3.86,4.21,7.93,8.22,12.15,12.07.73.67,1.38,1.62,2.62,1.57a2.62,2.62,0,0,0,.41-1.84c0-15.66,2-31.22,2.39-46.86.26-9.72.46-19.46-.16-29.17-.47-7.28-1.3-14.56-.85-21.85.28-4.67-.56-8.49-4.67-11.25-1.59-1.07-2.44-2.64-1.1-4.63a3.06,3.06,0,0,0,.16-2.47c-.1-.41-.23-1.06-.68-.91-2.28.79-1.76-1-1.94-2.08-.23-1.32.2-2.88-1-3.85-2.21-1.76-2.11-4-1.5-6.36a88.81,88.81,0,0,1,6.14-17,16.23,16.23,0,0,1,7.28-7.28c11.75-6.17,25-1.23,29.74,11.13.72,1.87,1.32,3.79,2,5.66.19.52.35,1.3,1.42.89a9.93,9.93,0,0,0-1.34-4.73c-.68-1.43-1.46-2.82-2.11-4.26-.33-.76-.19-1.55.75-1.75a1,1,0,0,1,1.33,1.26c-.45,1.69.58,2.57,1.54,3.54a7.08,7.08,0,0,1,2.08,4.19c.93,7.86.19,15.42-4.17,22.29-.62,1-1.17,2.09-2.59,2-.78,0-1.14.13-1,1.06.21,1.71-1.08,2.64-2.13,3.67s-1.77.79-2.78,0c-.42-.31-1,.25-1.27.69a4.37,4.37,0,0,0-.88,3c.61,3.78-.3,7.42-.72,11.12a12.48,12.48,0,0,0,1,6.82,9.56,9.56,0,0,1,.69,2.76,94.53,94.53,0,0,1,.19,23.41,12,12,0,0,1-1.22,3.91c-.68,1.36-1.6,1.9-3.06,1.12-1.12-.6-2.25-1.17-3.41-1.7-4.5-2-6.14-1.14-6.21,3.72q-.2,15.07-1.37,30.09c-.57,7.37-.8,14.77-1.21,22.16a8.23,8.23,0,0,1-.45,2.47c-1.49,3.88-1.47,7.59.87,11.18a4.87,4.87,0,0,1,.19,5.66,10.63,10.63,0,0,0-1.34,4.19c-.74,4.5-.73,9.06-1,13.59a16.57,16.57,0,0,0,3.36,11.31,55.85,55.85,0,0,0,9.33,9.91,287.05,287.05,0,0,1,21.89,20.68A4.83,4.83,0,0,0,90.7,783.73Zm38.51-231.35c7.89,0,14.65-.23,21.4-.66,9.11-.58,18.08-1.81,26.77-4.72a48.65,48.65,0,0,1,10.8-2.41,24.18,24.18,0,0,0,3.71-.83c3.78-1,7.56-2,11.34-3,7.58-1.95,15.39-2.75,23.05-4.33,2.72-.56,5.33-1.28,7.13-3.7a5.16,5.16,0,0,1,2.72-1.55,21.73,21.73,0,0,0,2.4-.79c1.06-.48,1.1-1.24.15-1.88a8.92,8.92,0,0,0-1.42-.7c-7.08-3.31-14.08-6.81-20.92-10.6a34.73,34.73,0,0,0-8.51-3.43c-.91-.22-2.16-.41-2.57-1.06-1.26-2-3.26-1.83-5.12-2.4-2.42-.74-5.68-.67-6-4.42-.05-.51-.75-.67-1.25-.86a9.69,9.69,0,0,0-3.37-.77,13.49,13.49,0,0,1-8.16-3,67,67,0,0,0-14.74-8.62c-2.28-1-4.59-1.62-7-.47a3.47,3.47,0,0,1-3.63-.27c-1.69-1.23-3.38-.89-5.13-.3-3.91,1.33-7.68,3-11.46,4.65-6.09,2.68-12.11,5.57-18.55,7.35-19.45,5.39-37.68,13.81-55.88,22.3-2.2,1-2.29,1.53-.58,3.13,6,5.66,12.49,10.75,20.25,14a189.36,189.36,0,0,0,21.84,7.61,42.13,42.13,0,0,0,5.58,1.14C118.08,552.58,124.21,552.21,129.21,552.38Zm285.7-17.51a24.47,24.47,0,0,0-9.27-1.9c-7.2-.2-14.37.51-21.55.86a45.75,45.75,0,0,0-9.76,1.08c-5.05,1.37-10.27,1.09-15.39,1.78-4.71.63-9.46,1-14.16,1.73a85.77,85.77,0,0,0-10.38,2.77A102,102,0,0,1,323,543.62a68.57,68.57,0,0,0-10.72,2.85,50.1,50.1,0,0,0-10.68,4.76,27.36,27.36,0,0,1-6.16,3.21,8.7,8.7,0,0,0-4.4,3,9.55,9.55,0,0,1-4.67,3.06,52.66,52.66,0,0,0-13.51,6.93c-3.05,2.27-6.16,4.47-9.27,6.66a116.27,116.27,0,0,0-25.83,24.65c-2.79,3.66-5.58,7.27-8.6,10.75A63,63,0,0,0,219.72,624a16.86,16.86,0,0,0-2,5.61,24.21,24.21,0,0,1-2.17,7.76c-1.52,3.42-1.88,7.34-4.71,10.18a.7.7,0,0,0-.13.29c-1.14,5.17-3.72,9.86-4.9,15.06A105.51,105.51,0,0,1,201,678.67a30.88,30.88,0,0,0-2,7.66A361.77,361.77,0,0,0,196.37,736a38.69,38.69,0,0,0,.46,5c2.25,14.77,7.15,28.69,13.63,42.09a30.76,30.76,0,0,0,4.27,6.65c5.61,6.61,11.44,13,17.64,19.11.55.54,1,1.34,2.18,1.38-.42-1-.74-1.87-1.14-2.71-2.2-4.57-4.46-9.12-6.62-13.71-1.8-3.83-3.73-7.68-4.33-11.88-1-6.86-4-13.13-5.5-19.83-1.74-7.6-3.45-15.23-5.34-22.8a14.18,14.18,0,0,1-.25-2.53c-.6-10.14-.31-20.29,0-30.43a17,17,0,0,1,.89-5.3,22,22,0,0,0,1.09-4.93,200.16,200.16,0,0,1,3.69-20.6,113.28,113.28,0,0,1,14.05-33.84c4.09-6.65,8.37-13.23,12.88-19.61a103.19,103.19,0,0,1,12.72-15.35c7-6.63,14.27-12.92,21.23-19.56,10.81-10.32,23.27-18.32,36.39-25.18,27.76-14.53,57.2-23.59,88.61-25.77C406.93,536,411,536,414.91,534.87ZM704.13,547c-2,2.75-3.62,4.81-5.1,7a8.45,8.45,0,0,1-3.75,3.28,19.66,19.66,0,0,0-5,2.76,7.6,7.6,0,0,1-3.85,1.37c-2.3.29-4.62.55-6.94.65-7,.32-13.89-.89-20.83-1.6a76.76,76.76,0,0,1-21.43-5.4,32.77,32.77,0,0,0-8.79-2.62,2.75,2.75,0,0,1-1.19-.39c-4.67-3-9.91-4.73-15-6.7a121.17,121.17,0,0,1-17.89-8.81A138.56,138.56,0,0,1,582,528.83c-.93-.69-2-1.16-3-1.79a93.18,93.18,0,0,1-8.5-5.54c-9.21-7.42-18.13-15.2-28.06-21.71-1.76-1.15-3.29-2.66-4.94-4a15.93,15.93,0,0,0-1.84-1.23c-.82-.49-1.44-.3-1.66.67a11,11,0,0,0-.3,1.88c-.43,7.28-.84,14.56-.88,21.85a9.43,9.43,0,0,0,2,5.58,23.69,23.69,0,0,0,4.16,4.33,110,110,0,0,0,12.41,8.8c12.44,7.82,25.19,15.14,37.18,23.68a128.78,128.78,0,0,0,12.63,7.89c14.71,8.1,30.32,13.93,46.43,18.54,6.64,1.9,13.32,3.39,20.28,3.06q12-.57,24.07-1.21a9.51,9.51,0,0,0,6.16-2.18,9.67,9.67,0,0,1,4.61-2.62,2.6,2.6,0,0,0,2.23-2.68c.5-7.69,1.69-15.35,1.27-23.09C706.11,555.19,704.88,551.52,704.13,547Zm-38.5-99.86c-2.29-.7-3-2.45-3.57-4.28a7.59,7.59,0,0,0-2.35-3.34c-2.33-2-4.55-4.15-7.05-5.9-6.42-4.48-12.26-9.71-18.67-14.2-2.69-1.88-5.68-3.19-8.27-5.2-1.51-1.17-3.23-.81-4.54.65a26.07,26.07,0,0,0-1.81,2.59c-3,4.42-6.66,8.45-11.56,10.61-6,2.64-12.27,4.55-19,4.58-5,0-9.93-.24-14.88-.67-13.25-1.17-25.82-4.41-37-12a2.59,2.59,0,0,0-2.62-.41c-5,1.77-10,3.48-15,5.05a3.18,3.18,0,0,0-2.61,3.39c-.08,4.12-.32,8.24-.41,12.36-.18,7.71-.13,15.43-.5,23.14-.3,6.13-.24,12.27-.27,18.4,0,2.5.21,2.44,2.86,2.12s5.31-1.42,8.07-1.44a37.11,37.11,0,0,0,8.46-1.18,183.33,183.33,0,0,1,19.3-3.66,148.31,148.31,0,0,0,30.2-7.08,6.25,6.25,0,0,1,1.85-.4,9.57,9.57,0,0,0,5.23-2,20.85,20.85,0,0,1,5.63-2.84,59.68,59.68,0,0,1,12.71-2.62,94.11,94.11,0,0,0,27.8-7.28,71,71,0,0,1,12.56-4.26c3.82-.87,7.65-1.67,11.45-2.58C662.88,448.39,664.21,448.38,665.63,447.17ZM53.64,757.7a1.84,1.84,0,0,0-.37,1.69,229.26,229.26,0,0,1,1.16,25c-.11,11.1-.22,22.19-.26,33.29,0,7.61-.07,15.22,1.26,22.76a14.75,14.75,0,0,1-.64,8.14c-1.89,4.66,0,9.17.23,13.74,0,1,.91,1.63,1.54,2.34,3,3.37,6.08,6.76,9.12,10.13a97.25,97.25,0,0,0,8.95,9c5.87,5,11.49,10.3,17.05,15.65a18.77,18.77,0,0,0,1.91,1.66c.58.43,1.3.47,1.47-.39.14-.7.57-2.16-.31-2-2.2.31-1.92-1.24-2.12-2.32a27.51,27.51,0,0,1,.56-11.63,8.49,8.49,0,0,0,.35-3.1,110.43,110.43,0,0,1-.83-14.55c.08-19.76-.44-39.52-.67-59.28,0-3.18-.42-6.33-.73-9.48a8.71,8.71,0,0,0-2.1-5.21c-3.63-4-6.86-8.31-10.77-12C71.18,774.1,64,767.13,56.69,760.19A11,11,0,0,0,53.64,757.7ZM156.39,359.14a6.84,6.84,0,0,0-3.27.95,37.22,37.22,0,0,0-4.28,2.71,143.75,143.75,0,0,0-25.51,25.48,29.68,29.68,0,0,0-6.14,16.07,230.69,230.69,0,0,0-.1,38A35.47,35.47,0,0,0,123,459.2c1.8,2.75,3.85,4.78,7.46,4.21a3.05,3.05,0,0,1,.95.07c2.21.41,2.85,1.69,1.74,3.62-.36.64-.92,1.17-1.28,1.81a.89.89,0,0,0,.62,1.44c.72.15,1.47.16,2.2.25,3.86.48,7.83,0,11.55,1.64,1.14.51,1.83-.18,1.51-1.52a26.23,26.23,0,0,0-1.62-4.79,33.67,33.67,0,0,1-2.76-13.56,134.79,134.79,0,0,1,1.34-21.81c1.82-13.09,5.81-25.29,14.07-35.88,6-7.74,12.69-14.72,21.65-19.15,2.26-1.12,2.3-1.69.28-2.93q-10-6.12-20.1-12.08A9.83,9.83,0,0,0,156.39,359.14ZM46.12,853.1a7.93,7.93,0,0,0,.2-1.51c-1.87-12.4-1.16-24.89-1.26-37.35,0-4.34-.36-8.66-.8-13s-.74-8.85-.86-13.28c-.37-13.85.13-27.69.58-41.52a115.26,115.26,0,0,1,1-12c.58-4.18,1.22-8.36,1.52-12.58a10,10,0,0,0-3.32-8.81c-2.67-2.39-5.16-5-7.85-7.38a107,107,0,0,1-12.06-12.12c-.37-.45-.65-1.15-1.5-.92-.59,1-.32,2.05-.31,3.07.05,4.33.23,8.66.26,13q.16,31.56.29,63.1c0,2.32.1,4.65.28,7,.71,9.38,1.53,18.73,1.77,28.15.18,6.53.11,13.1,1,19.61a11.45,11.45,0,0,0,3.16,6.74c3.63,3.7,7.2,7.45,10.82,11.15.56.58,1,1.4,2.34,1.35,1.12-3.87.28-8.26,2.4-12.26,1.06,1.08.8,2.16.72,3.15-.26,3.05-.5,6.11-.88,9.15A8.29,8.29,0,0,0,46.12,853.1ZM356.84,373a23.53,23.53,0,0,0-2.53.19,209.81,209.81,0,0,0-23.8,5.33A56.23,56.23,0,0,1,320,380.55c-3,.31-6.07.76-9.1,1.27-6.25,1.06-12.28,3.14-18.58,4a4.22,4.22,0,0,0-3.21,2.35,35,35,0,0,0-2,4.31q-3.75,10.44-7.39,20.92a21.52,21.52,0,0,0-.84,3.05c-.42,2.1.06,2.7,2,2.22,11.07-2.73,22.5-3.89,33.29-7.82a72,72,0,0,1,10.75-2.71c4.25-.84,8.52-1.59,12.73-2.6a72.66,72.66,0,0,1,7.35-1.9q13.66-1.78,27.32-3.66c3.29-.44,3.58-1,2.2-4.1-.3-.67-.63-1.34-1-2a82.68,82.68,0,0,1-4-7.56,54.71,54.71,0,0,0-5.74-9.82C362.1,374,359.93,372.63,356.84,373Zm-113,373.12c0-.62,0-1.24.1-1.86.47-5.48.42-11,.9-16.46.45-5.26.8-10.56-.47-15.79a5.15,5.15,0,0,1,.36-3.71,25.08,25.08,0,0,0,2.08-6.65,81.93,81.93,0,0,1,7.46-20.84c5.57-11,11.25-22,18.35-32.22,5.55-8,10.64-16.17,18.88-21.88,3.79-2.63,6.85-6.28,10.33-9.37,7.66-6.78,14.89-14,24.05-19,5.48-3,10.75-6.34,16.22-9.34,5.93-3.25,11.7-6.87,17.84-9.67a152.2,152.2,0,0,1,25.8-8.75c1.74-.45,3.52-.72,5-1.87.59-.46,1.61-1,2-.24.83,1.72,2.09,1,3.23.86,2.91-.49,5.8-1.18,8.72-1.65,7.72-1.23,15.41-2.65,23.21-3.38s15.42-.66,23.13-1.07c.8,0,1.7.25,2.48-.66-1-1.32-2.61-1.69-4-2.16a63.07,63.07,0,0,0-16.87-2.66,179.93,179.93,0,0,0-45.69,4.06c-8,1.68-15.94,3.25-23.43,6.67-13.09,6-26,12.28-38.61,19.24a136.2,136.2,0,0,0-17.76,11.61A155.56,155.56,0,0,0,288,617.43c-3.64,4-7.05,8.2-8.23,13.71a3.81,3.81,0,0,1-.46,1.17,2.93,2.93,0,0,1-3.28,1.37c-1.42-.31-1.61-1.47-1.66-2.71,0-.55.62-1.16-.13-1.71a8,8,0,0,0-.63.71c-10.12,15.77-19.82,31.76-27.46,48.92a42,42,0,0,0-3.25,11.56,87.73,87.73,0,0,0-.89,12.33c.07,8.36-.07,16.72.29,25.06C242.53,733.93,242.63,740,243.82,746.09Zm56.87-405.77c-.16-.71-.78-1-1.33-1.25-6.05-3-12.13-5.91-19.24-4.73-2.81.47-5.68.58-8.5,1-10.26,1.34-20.52,2.77-30.78,4.09-17.5,2.27-35,4.79-52.26,8.27-7.89,1.58-15.5,4.18-23.34,5.9-.76.16-1.82.3-1.81,1.43,0,.89.9,1.07,1.55,1.39.28.14.59.24.87.39a134.07,134.07,0,0,1,20.64,12.86,15.13,15.13,0,0,0,5.81,3.15c3.1.68,5,3.39,8,4.28.34.1.6.57.84.91a15,15,0,0,0,6.25,4.73c2.76,1.32,4.19.8,5-2.15a8.19,8.19,0,0,1,2.87-4.39,12.16,12.16,0,0,0,2.09-2.37q5-7,9.89-14a4.9,4.9,0,0,0,1.11-2.9c0-2.44.56-2.92,3-3.23,1.43-.18,2.72.69,4,.59s1.85-1.81,3.38-2c2.09-.26,4.14-.92,6.23-1.18,8.69-1.11,17.41-2,26.09-3.2a173.35,173.35,0,0,0,25.43-5.25,35.45,35.45,0,0,0,3.55-1.35A1,1,0,0,0,300.69,340.32ZM272.79,517l-.1-.52c-3.58.88-7.16,1.75-10.73,2.66a6.65,6.65,0,0,0-2,.86,3.27,3.27,0,0,0-1.06,3.7c.68,1.53,1.89,1,3,.68,4-1.09,7.91-2.31,11.92-3.25,25.14-5.92,50.75-9,76.27-12.65q19-2.69,38-4.88c7.37-.83,14.49-3,21.85-3.79a52,52,0,0,0,9-1.79c4.88-1.44,9.85-2.45,14.82-3.46a9.34,9.34,0,0,0,2.45-.59,12.77,12.77,0,0,1,6.76-1.29,2.68,2.68,0,0,0,2.85-1.58,3.53,3.53,0,0,1,.76-1c1-.88,2-1.83,3.35-1.16,1.51.76-.57,1.82,0,2.72a2.48,2.48,0,0,0,1.83.5,12.5,12.5,0,0,0,2.21-.09c2-.32,2.47-1.12,1.69-3.11a26.17,26.17,0,0,0-2.91-5.25,5,5,0,0,0-4.56-2.34c-4.55.17-9.09.32-13.25,2.54a7.13,7.13,0,0,1-2.13.57c-2.68.48-5.38.91-8.07,1.37a10.38,10.38,0,0,0-4.46,1.54,6.7,6.7,0,0,1-4.15,1.22,9.58,9.58,0,0,0-2.81.43c-2.81.91-5.92-.32-8.66,1.34-.72.43-1.85-.09-2.78-.35a13.35,13.35,0,0,0-2.78-.58c-1.61-.1-3.41,0-4.27,1.52C393.64,493,392,493.2,390,493c-2.15-.18-4.15,0-5.89,1.61a3,3,0,0,1-3.52.53,6.58,6.58,0,0,0-4.67-.39c-3.45,1-7.09,1-10.53,2a35.24,35.24,0,0,1-5.58,1.17c-6.81.9-13.6,1.81-19.92,4.76a2.75,2.75,0,0,1-1.23.26,28.13,28.13,0,0,0-8.73,1.4,3.69,3.69,0,0,1-2.79,0c-.89-.44-1.52-.1-2.31.38-5,3.08-10.74,4.31-16.39,5.68a2.09,2.09,0,0,1-1.81-.22c-.8-.57.69-1.38-.31-1.95a15.31,15.31,0,0,0-3.85,1.25c2,1.5,2,2.1,0,2.85a31.43,31.43,0,0,1-4,1c-2.48.55-5,.9-7.42,1.65s-5.29-.64-7,2.12c0,0-.2,0-.3,0-4.34,1.09-8.67,2.21-13,3.26-2.46.59-4.95,1.1-7.44,1.54-.89.16-2.21.47-2.46-.69s1.08-1.29,1.94-1.53C266.07,518.81,269.43,517.92,272.79,517Zm364.75-9.74c3.79.3,6.59-1.45,8.69-4.6a28.68,28.68,0,0,0,2.67-5.38c1.38-3.51,2-7.07-.44-10.45-.27-.36-.51-.74-.34-1.15,1-2.37-.54-3.77-2.17-4.67-3.13-1.74-5.82-4.17-9.12-5.65-2.62-1.17-5.4-1.9-8-3.07a13.33,13.33,0,0,0-9.58-.43c-4.66,1.35-9.3,2.88-14,3.93s-6.68,6-4.34,10.08a31.63,31.63,0,0,0,11.27,11.78,88.18,88.18,0,0,0,19.66,8.71A17.16,17.16,0,0,0,637.54,507.27ZM254.55,360a5.11,5.11,0,0,1,4.28,1.88,3.38,3.38,0,0,0,2.48,1.23,6.9,6.9,0,0,1,3.69,1.67c7.12,5,14.66,9.14,23.33,10.83a4.88,4.88,0,0,1,2.69,1.58,5.51,5.51,0,0,0,6.09,1.57,95.27,95.27,0,0,1,17.39-3.29,29.61,29.61,0,0,0,3.73-.73c2.63-.64,2.77-1,1.47-3.41a11.67,11.67,0,0,0-1-1.63c-4.23-5.52-7.27-11.89-12.08-17a6.47,6.47,0,0,1-1.78-3c-.4-1.91-1.52-2-3.06-1.5-1.72.52-3.47.92-5.21,1.37-12,3.1-24.12,5.33-36.13,8.18C258.44,358.26,256.36,358.64,254.55,360Zm22,32.66a3.37,3.37,0,0,0-1.75-3.76c-2.28-1.34-4.58-2.66-6.9-3.91-10.52-5.65-21.47-10.52-31.63-16.85a2.45,2.45,0,0,0-3.39.42,89,89,0,0,0-8,8.09,17.27,17.27,0,0,0-1.81,2.6c-1,1.72-.82,2.1.85,3,.65.34,1.35.61,2,.9,6.29,2.76,12.59,5.5,18.69,8.69C252.68,396,260.85,400,269,404c3.07,1.52,4.38.85,5.15-2.55a62.21,62.21,0,0,1,1.69-6.44C276.19,394,276.46,393,276.57,392.66ZM657.28,493.73c-.41.32-.64.4-.72.56a5.42,5.42,0,0,0-.45,1.18c-1.22,4.62-3.86,8.4-6.89,12-4.49,5.33-10.16,7-16.8,5.36a86,86,0,0,1-21.75-8.52c-5.58-3.15-10.87-6.68-14.28-12.54a14.58,14.58,0,0,1-2.42-8,6.4,6.4,0,0,0-.3-2.82c-.41-.89-1.07-1-1.71-.26a6.13,6.13,0,0,0-.92,1.64,13.63,13.63,0,0,0-.46,9.6,30.78,30.78,0,0,0,13.11,17c10.16,6.55,21.07,11.25,33.18,12.65a38.86,38.86,0,0,0,13.26-.33,12.05,12.05,0,0,0,9.52-13.92,7.26,7.26,0,0,1,.31-2.48C660.69,500.74,659.11,497.26,657.28,493.73Zm-7,34.63c-.46-.21-.65-.37-.82-.36-10.64.67-21-.25-31-4.3A136.56,136.56,0,0,1,599.54,514c-3.53-2.09-6.52-4.92-9.91-7.21a2.32,2.32,0,0,1-1-1.22,9.24,9.24,0,0,0-2.14-4.14,2.5,2.5,0,0,1-.37-1.82c.18-4-1.43-7.76-1.75-11.73a12.54,12.54,0,0,0-1.2,8.25,31.86,31.86,0,0,0,3.8,10.35,98.11,98.11,0,0,0,8.16,11.68,34.7,34.7,0,0,0,18.27,12.45c1.62.48,3.22,1,4.85,1.46a47.31,47.31,0,0,0,21,1.07A25.35,25.35,0,0,0,650.25,528.36ZM160.32,417.91l-.37-.19c-.77,1.09-1.5,2.21-2.32,3.27-.45.57-1,1.24-1.84.65-.63-.45-.34-1.19-.06-1.74,1.1-2.17,2.13-4.38,3.43-6.43.79-1.24.91-3.6,3.47-2.73.37.12.49-.33.49-.64,0-2.86,1.89-4.7,3.71-6.38,4.22-3.88,6.64-9.27,11.15-12.86,1-2.7,3.43-3.89,5.61-5.36.78-.53,1.88-.79,2.29-2.4-3.93,1.55-7.41,3-11,4.29a12,12,0,0,0-4.51,2.8c-11.42,11-17.73,24.51-19.72,40.15-.59,4.61-.51,9.32-1.71,13.82A21.94,21.94,0,0,0,149.4,457c.95,2.91,1.83,5.85,2.82,8.74.25.73.27,1.68,1.19,2.09.1-.23.25-.42.24-.6-.19-7.9-.64-15.79-1.48-23.65-.14-1.27,0-2.54-.1-3.79-.35-4.79,2.64-9,2.42-13.72a3.39,3.39,0,0,1,.7-1.74c1-1.55,1.72-.59,2.42.6Zm53,203.11c5.61-6.94,8.45-15,10.4-23.7-1.5.14-1.81,1.92-3.52,1.47.87-2,1.11-4.19,2.69-5.81.43-.43,1.12-1.08,1.53-1,1.67.38,1.84-.36,1.91-1.75s1-2.31,1.74-3.34a12,12,0,0,0,2.1-4.23,60.3,60.3,0,0,1,2.57-7.5c3.08-8,6.53-15.83,10.19-23.58.94-2,1.77-4.06,2.59-6.13.23-.58.29-1.32-.59-1.5-1.78-.38-6.15,2-6.92,3.75-1.37,3.2-2.63,6.46-4,9.65-4.22,9.55-6.53,19.83-11.29,29.19-1.75,3.46-2.53,7.39-3.43,11.2-.21.92-.67,1.87-.28,2.8a3.33,3.33,0,0,1-1,4.23,5.81,5.81,0,0,0-1.3,2.14A54.4,54.4,0,0,0,213.34,621ZM493.73,448a25.91,25.91,0,0,1-.73,3.71c-.19.46-.27,1.09-1,1-.49-.09-.63-.55-.67-1-.18-1.8-.5-3.74.57-5.25s.77-2.73.38-4.18c-1.32-4.91-1.82-5.13-6.86-4a4.84,4.84,0,0,0-4.15,4.47,38.74,38.74,0,0,0,.09,14.48,76.23,76.23,0,0,1,1.47,9.38c.26,2.85.38,5.69.46,8.55,0,.82-.15,1.94.84,2.19a6.33,6.33,0,0,0,4.85-.84c1.15-.71.61-1.92.4-2.91-1-4.76-2-9.51-3-14.27-1-5-2.18-9.92-2.22-15a17.36,17.36,0,0,1,.26-3.14c.13-.71.44-1.49,1.33-1.58.7-.06,1.15.47,1.52,1a9.21,9.21,0,0,1,1.63,4.74,53.41,53.41,0,0,0,1.49,8.42c1,4.1,2,8.2,2.73,12.37.34,2,.55,4,1,6s1.37,2.39,3.22,1.63c2-.82,2.55-1.74,2.27-3.91s-.6-4.18-.85-6.28C498.12,458,495.84,453.07,493.73,448ZM317.29,356.13l-.46.35c2.68,4.29,5.39,8.57,8,12.89,2.18,3.57,2.15,3.6,6.29,2.54.31-.07.61-.16.91-.25,6.15-2,12.32-3.83,18.84-4,.51,0,1.07-.12,1.14-.82-4.51-4.47-33.27-18.4-39.16-18.82,3.21,3.42,6.21,6.66,9.26,9.87,2.69,2.84,5.42,5.63,8.12,8.46.44.46.93,1,.66,1.67-.34.84-1.2.71-1.93.71a1.88,1.88,0,0,1-1.9-1.39,4.08,4.08,0,0,0-2.06-2.7c-2.47-1-3.64-3-4.95-5.06A41.09,41.09,0,0,0,317.29,356.13Zm-96.85,31.42c-.73.12-1.48-.11-1.75.68s.3,1.18.81,1.56c.85.62,1.72,1.23,2.62,1.78,6.58,4,13,8.32,19.35,12.69,7.41,5.08,14.93,10,22.39,15,1,.68,2,1.18,3.22.5a4.16,4.16,0,0,0,.93-6.84,52.3,52.3,0,0,0-9.31-6.57c-4.8-2.67-9.65-5.26-14.43-8a176.41,176.41,0,0,0-20.63-9.73C222.57,388.21,221.45,387.89,220.44,387.55Zm-175,188.18c1-.44,1.1-1.25,1.37-1.88a10.92,10.92,0,0,1,10-7.15,29.47,29.47,0,0,0,5.93-1,3.17,3.17,0,0,1,3.8,1.43,12.37,12.37,0,0,1,2.29,6.5c.32,3.26.47,6.54.74,9.8.08,1-.32,2.14.83,3.1a6.67,6.67,0,0,0,3.21-5.42c.19-6.62-.62-13.09-3.4-19.18A16.08,16.08,0,0,0,66,556.09c-1.77-1.46-3.79-2.6-6.11-2a22.3,22.3,0,0,0-13.22,9.22,5.84,5.84,0,0,0-.75,2.07A42.31,42.31,0,0,0,45.46,575.73ZM463.55,462.45c0-2.5-.06-4.68,0-6.86,0-1-.23-2.57,1-2.65s1.17,1.54,1.26,2.5a23.42,23.42,0,0,1,0,4.43c-.18,1.89-.54,3.76-.84,5.64a15.7,15.7,0,0,0,1.75,10.12c.41.77,1,1.61,1.95.72,1.68-1.61,3.18-3.17,2.46-6-1.28-5-2.17-10.13-3.14-15.21-.48-2.49-.83-5-1.14-7.52a4.77,4.77,0,0,1,1-3.89c1.05-1.2,2.31-1.1,3.09.29a10.86,10.86,0,0,1,1,3.65c.5,3.13.43,6.35,1.38,9.4a53.11,53.11,0,0,1,1.79,9,17.87,17.87,0,0,0,2.21,7.23c.34.54.56,1.42,1.75,1.07-.43-3.26-.83-6.49-1.3-9.71a2.86,2.86,0,0,0-.7-1.73c-1.76-1.38-1.64-3.24-1.67-5.16a25.67,25.67,0,0,0-.49-4.08,79.61,79.61,0,0,1-1.5-11.62c-.08-2.45-.27-2.69-2.58-2.4a31.84,31.84,0,0,1-10.71-.23c-1.73-.36-2.22.22-2.23,2.08a10,10,0,0,0,.17,1.89,150.45,150.45,0,0,0,3.78,16.37C462.1,460.6,462.1,461.64,463.55,462.45Zm111-41.58c.85,0,1.7.05,2.54,0,2.45-.15,3.09-.82,2.72-3.15A168.33,168.33,0,0,0,576,400.38c-.71-2.64-1.58-2.85-3.75-1.07a34.1,34.1,0,0,0-5.06,5.67c-2.49,3.17-4,7-6.52,10.11-.92,1.12-.42,2.2.64,3a8.71,8.71,0,0,0,3.16,1.43A40.84,40.84,0,0,0,574.51,420.87Zm14.71-.67a72.45,72.45,0,0,0,11.84-2.51c1.72-.57,1.93-1.4.94-2.86a13.61,13.61,0,0,0-1.67-1.9,83.51,83.51,0,0,0-14.1-11.18c-1-.65-2.23-2-3.36-1.2s-.4,2.5-.22,3.81c.66,4.93,2.66,9.53,3.58,14.4C586.48,420.09,587.56,420.24,589.22,420.2ZM465.86,490.67l1.26-.14c10.59-1.25,21-3.65,31.33-6.08a4.38,4.38,0,0,0,2-.82c.8-.72,1.25-2.72.68-3.5-.76-1.05-1.72-.43-2.57-.12a43.86,43.86,0,0,1-7.25,2.19,85.14,85.14,0,0,1-27.08.41c-.62-.09-1.24-.25-1.87-.3s-1.35.23-1.13,1.07c.52,1.92.65,3.95,1.76,5.7A2.86,2.86,0,0,0,465.86,490.67ZM282.84,382c-.16-1.06-1.32-1.49-2.32-2-8.35-4.32-16.78-8.46-25.35-12.31a19.32,19.32,0,0,0-3.56-1.32c-3.55-.81-6.89-2-9.64-4.5-.4-.36-.93-.64-1.38-.12a1.15,1.15,0,0,0,.06,1.46,7.78,7.78,0,0,0,3.82,2.7,21.75,21.75,0,0,1,4.08,1.71c9.17,6.07,19.05,10.88,28.76,16a13.64,13.64,0,0,0,2.61,1.13C281.4,385.18,282.89,383.9,282.84,382Zm284.35,13.35a11.7,11.7,0,0,0-4.45,1.7c-5.28,2.66-10.21,5.94-15.54,8.51a11.22,11.22,0,0,0-2.58,1.81c-1.67,1.49-1.65,2.82.11,4.19a22.25,22.25,0,0,0,6.22,3.06,1.93,1.93,0,0,0,2.29-.56c.62-.71,1.25-1.43,1.8-2.2a141.93,141.93,0,0,1,11.5-14.69A2,2,0,0,0,567.19,395.38Zm-191-12.8A56.7,56.7,0,0,0,381,396.21a3.85,3.85,0,0,0,4.21,2.55c4.1-.3,8.21-.48,12.31-.74.69,0,1.51.24,2.3-1.16C392,392.5,384.21,388,376.17,382.58Zm84.48,91c-.3-1-.61-2-.9-3-2.46-8.72-5.12-17.39-6.86-26.3a10.32,10.32,0,0,1-.19-4.07c.47-2.3.39-2.38-1.84-2.92a13.37,13.37,0,0,0-1.56-.27c-2.28-.31-2.48-.21-2.26,2a29.72,29.72,0,0,0,5.59,15.22c.39.52.87.94.84,1.63-.13,4.1,1.25,8.14.41,12.28-.43,2.14,0,2.79,2.06,3.64C457.39,472.41,458.94,472.79,460.65,473.59ZM476.7,421a20.2,20.2,0,0,0,2,6.38c1.15,2.71,1.73,3,4.59,2.51q7-1.32,13.92-2.83a9.89,9.89,0,0,0,4.71-1.89C493.51,424.52,485.28,422.68,476.7,421Zm127.66-11.82a9.7,9.7,0,0,0,3,3.12c1.69,1.28,2.91,1.25,4.25.07a3.44,3.44,0,0,0,.87-4.52,15.14,15.14,0,0,1-1.07-2.27c-1-3.46-3.67-5.25-6.69-6.7-.68-.32-1.53-.63-2.13-.24-2,1.3-3.81.57-5.63-.4a3.37,3.37,0,0,0-.9-.28c-.64-.11-1.29-.11-1.66.54a1.39,1.39,0,0,0,.17,1.49,9.26,9.26,0,0,0,3.28,2.91c2.89,1.75,6,3,9.06,4.48,1.32.64,2.62,1.34,3.89,2.08.54.31,1.13.8.87,1.51-.35,1-1.2.71-1.88.46C608.18,410.76,606.58,410.05,604.36,409.13ZM502.29,456.06h.29c.06-.46.11-.93.18-1.4,1-7,1.5-14.1,4.5-20.67a2.85,2.85,0,0,0,.26-1.22,1,1,0,0,0-.42-.75.54.54,0,0,0-.78.31c-.16.38-.21.81-.35,1.21-1.24,3.59-1.44,3.69-5.06,2.15-1.08-.46-2.07-.58-2.85.43s-1.18,2.29-.13,3.15c2.59,2.13,2.73,5.12,3.19,8S501.91,453.14,502.29,456.06Zm54.34-62.14c-1.64-1.34-3-2.09-4.69-1.7a33.72,33.72,0,0,0-10,3.83,4,4,0,0,0-2.09,2.64,2.58,2.58,0,0,0,.57,2.64,2,2,0,0,0,2.37.16A94.3,94.3,0,0,0,556.63,393.92Zm-240,416.44a152.34,152.34,0,0,0,1.54,44.71C318.07,840.25,317.79,825.43,316.59,810.36ZM451.17,402c-1.68.08-3.37.15-5.05.26-.62,0-1.34.08-1.43.92-.06.59.41.93.87,1.21a10.33,10.33,0,0,0,1.4.73,82.12,82.12,0,0,0,12.12,3.55c.5.12,1.1.24,1.47-.25s0-1-.31-1.41a7.22,7.22,0,0,1-1.38-2.09c-.66-2.66-2.55-3-4.84-2.93C453.07,402,452.12,402,451.17,402Zm-11.7,20.58,0,.77c2.48,1.08,5,2.13,7.45,3.26a3.29,3.29,0,0,0,4.44-1c.45-.58,1-1.09,1.4-1.69s1.41-1.2.86-2.15c-.43-.75-1.32-.53-2-.46C447.53,421.66,443.5,422.11,439.47,422.56Zm6.71-7.39.18-.72a18,18,0,0,0-6.24-1.67c-2.28-.36-4.58-.66-6.87-.9a2.13,2.13,0,0,0-2.44,1.57,3.22,3.22,0,0,0,.78,3.49c.91.83,1.76.2,2.58-.27a13.84,13.84,0,0,1,7-1.5Zm11.22,14.6c4.57-.18,8.81,1,13.36.51-4.54-6.57-8.07-6.91-13-1.54A7.9,7.9,0,0,0,457.4,429.77Zm-11.17,26.55a1.1,1.1,0,0,0,.1-1.37c-2.41-5.76-4.71-11.56-4.7-18a3.08,3.08,0,0,0-1.26-2.46c-.42-.33-.89-.68-1.43-.45s-.44.89-.3,1.38c.51,1.83,1,3.66,1.61,5.47.77,2.41,1.87,4.78,1.78,7.36C441.92,451.82,444.05,454,446.23,456.32Zm61.42-14.67a20.76,20.76,0,0,0-.72,2.06c-1.57,7.59-1.21,15.34-1.9,23a1.88,1.88,0,0,0,.07.62c.09.32.29.63.63.61a1.13,1.13,0,0,0,.78-.39,4.83,4.83,0,0,0,.54-3.06c.08-5.48.06-11,.57-16.45C507.79,446.18,507.65,444.28,507.65,441.65Zm-13.82-25c2.76,1.4,5.78,1,8.65,1.56,2,.37,3.92.62,5.27,2.4,1.85-3.87,1.23-5.09-2.67-5.19S497.52,415.27,493.83,416.64ZM478,403.57a19.58,19.58,0,0,0-7.42-.62,1.83,1.83,0,0,0-1.81,2.14,11.3,11.3,0,0,0,.33,2.47c.41,1.48,1,1.73,2.26.86C473.4,407,475.38,405.47,478,403.57ZM598.67,829c4.84-7.15,13.05-25.23,13.16-28.56C607.4,810.07,603,819.53,598.67,829ZM495.22,408.59a9,9,0,0,0-6-2.5c-1.88-.1-2.56.75-2.91,3.24Zm-1.49,233.32c-4-.29-6.52,1.7-9.3,3.11s-5.44,2.56-8.17,3.83C482.28,647.42,487.52,644.23,493.73,641.91ZM83.15,572.49c-1.32,1.88-2.45,8.38-2.17,11.6C82.11,580,83.46,576.42,83.15,572.49ZM423.81,409.92c-2.32,3.18-2,5.59,1.43,10.34A40.42,40.42,0,0,1,423.81,409.92ZM231.66,766a8,8,0,0,1-3.59-.57,56.56,56.56,0,0,0,3.29,12.64c0-2.13-.89-4.05-1.38-6.07C229.43,769.81,228.71,767.54,231.66,766ZM521,603.68a8.57,8.57,0,0,0,3.35,2.9c1,.57,1.8-.09,1.67-1.31a1.78,1.78,0,0,0-1.49-1.76A6.16,6.16,0,0,0,521,603.68ZM507,476.57c-.86,1.63-1.08,2.88-1.88,3.88-.47.59-.65,1.4.3,1.81a1.32,1.32,0,0,0,1.79-.79A5.81,5.81,0,0,0,507,476.57ZM179,382.86c3.24-1.19,6.44-2.49,9.66-3.74A19.09,19.09,0,0,0,179,382.86ZM301.44,528.77c-1.77-.39-3,.3-4.29.55a.57.57,0,0,0-.38.76.64.64,0,0,0,.74.43A7.51,7.51,0,0,0,301.44,528.77Z" transform="translate(-15.42 -326.35)"/><path class="cls-1" d="M348.76,596.4c4.35.69,8,1.12,11.44,2.67,2.7,1.24,4.81,3,5.44,6.12a3.89,3.89,0,0,0,.73,1.72c.73.87,1.86,1.48,1.34,2.91s-1,2.66-2.33,3.28c-3.61,1.72-7.26,3.35-10.93,4.95a5.16,5.16,0,0,1-5.1-.76,10.65,10.65,0,0,1-4.5-6.64,18.66,18.66,0,0,1,1.2-12C346.69,597.07,347.67,596.14,348.76,596.4Zm7.76,9.47c0-1.62-.87-2.49-2.24-2.39a3.07,3.07,0,0,0-2.71,3c0,1.6,1.56,3.38,2.81,3.23S356.58,607.69,356.52,605.87Z" transform="translate(-15.42 -326.35)"/><path class="cls-1" d="M294.89,681.65c0,2.18-1.49,3.22-3.42,2.59l-.29-.13A51.88,51.88,0,0,1,276,670.85a1.7,1.7,0,0,1,.4-2.72c.42-.32.83-.66,1.25-1,3-2.27,3.48-2.26,6.15.32a115.34,115.34,0,0,1,8.79,9.57A8.4,8.4,0,0,1,294.89,681.65Z" transform="translate(-15.42 -326.35)"/><path class="cls-1" d="M275.89,739.43a2.3,2.3,0,0,1-1.83,2.43,3.25,3.25,0,0,1-.61.17c-4.66.31-8.56-1.76-12.38-4-2.76-1.61-3.88-4.31-4.5-7.28a5.32,5.32,0,0,1-.1-1.26c.08-2,1.2-2.84,3.13-2.31a10.58,10.58,0,0,1,3.33,1.77c3.45,2.56,6.68,5.44,10.95,6.72C275.49,736.15,275.87,737.7,275.89,739.43Z" transform="translate(-15.42 -326.35)"/><path class="cls-1" d="M315.11,622c.13-5.08,4.4-8.08,8.86-6.59,2.22.74,3.28,2.37,2.81,4.64-.52,2.44-1.54,4.63-4,5.79a4.58,4.58,0,0,0-2,1.49c-1,1.48-1.59,1.56-2.53.2C317,625.66,314.59,624.41,315.11,622Z" transform="translate(-15.42 -326.35)"/><path class="cls-1" d="M326.82,647.27c-2.37,0-4.13-.7-5.24-2.68a15.93,15.93,0,0,1-2.11-5.92c-.17-1.42,0-2.81,1.46-3.56s2.49-.09,3.5.73a14,14,0,0,1,4.94,7.9C329.88,646,328.82,647.22,326.82,647.27Z" transform="translate(-15.42 -326.35)"/><path class="cls-1" d="M389.1,589.14a4.73,4.73,0,0,1-2.56,4.25c-1.41.72-2.79.26-4.41-1.51a14.79,14.79,0,0,1-2.06-2.79,5,5,0,0,1,1.57-6.46,2.5,2.5,0,0,1,2.09-.39A7.7,7.7,0,0,1,389.1,589.14Z" transform="translate(-15.42 -326.35)"/><path class="cls-1" d="M538.32,889.86c-.36,1.32-.19,2.85-.82,4.21-.94,2-2.13,2.4-4,1.24-.18-.11-.35-.24-.52-.36-2.71-1.93-2.71-1.93-3.48,1.31a3.56,3.56,0,0,1-1.17,2.19,1.71,1.71,0,0,1-2.31.17c-.8-.67-.3-1.28.25-1.86a3.28,3.28,0,0,0,.67-1.06,3.21,3.21,0,0,0-.25-3.32c-.94-1.06-2-.13-2.87.29q-15.31,7.29-30.62,14.62a26.41,26.41,0,0,1-5.56,2.3c-3.25.73-5,2.93-6,5.93-.45,1.37-.35,3.24-2.1,3.58s-2.38-1.42-3.21-2.6a7.7,7.7,0,0,0-.74-1c-.68-.69-1.32-.61-1.75.27-.28.57-.41,1.21-.69,1.77-1,2.08-2.75,2.64-4.27.91-1.88-2.13-3.52-3.74-6.51-2.06a2.28,2.28,0,0,1-1.82-.25c-3.6-1.89-7.41-1.35-11.19-1.07a8.09,8.09,0,0,1-3.14,0c-1.35-.42-1.38-.78-.17-2.06a3.2,3.2,0,0,0,.34-.64,20,20,0,0,0-4.65-1.89,116,116,0,0,1-16.44-6.68,52.63,52.63,0,0,1-7-4.31,12.55,12.55,0,0,1-3.92-4.09c-.82-1.63-1.71-2.8-3.83-2.59-1.24.12-1.36-1-1.41-2-.13-2.84-.15-2.84-3-2.94a3.74,3.74,0,0,1-3.55-5.23,1.44,1.44,0,0,1,1.4-1.08c.59,0,.9.49,1,1,.08.31.12.62.18.93.21,1,.66,2,1.86,1.62s1.09-1.48.83-2.41c-.61-2.13-1.24-4.26-2-6.34-2.51-6.85-5.1-13.67-7-20.73-1.79-6.61-2-13.36-1.83-20.13.41-21,4.57-41.31,9.9-61.52a75.83,75.83,0,0,1,16.55-31c5.43-6.22,11.19-12.12,17.2-17.77a67.45,67.45,0,0,1,16.7-11.87c1.72-.84,3-2.49,4.68-3.18,4.41-1.85,7.92-5.16,12.24-7.11a189.63,189.63,0,0,1,30.1-10.85q6.3-1.63,12.57-3.31c6.13-1.64,12.31-1.53,18.57-.87a67.24,67.24,0,0,1,37,15.85,35.23,35.23,0,0,1,6.42,7.42c8.88,13.2,14.74,27.57,16.43,43.47a90.71,90.71,0,0,1-2.2,32.73c-2.17,8.28-4.49,16.52-6.64,24.81-3.79,14.55-10.91,27.46-19.56,39.58a189.1,189.1,0,0,1-16.8,19.83,17.11,17.11,0,0,1-4.83,4.06,2.22,2.22,0,0,0-1.31,2.83c.25,1.35.3,2.73.46,4.1a18.88,18.88,0,0,1,0,4.75c-.46,3.4-1.86,4.16-5,2.73C539.26,890,539,889.66,538.32,889.86ZM424.55,784.29c-.5,1.21-1.49,2.21-.4,3.77.88,1.25.1,2.49-1.3,3a2.64,2.64,0,0,0-1.9,1.46,31.66,31.66,0,0,0-2.31,7.22,7.57,7.57,0,0,0,1.93,6.75c1.17,1.23,2.28,2.5,3.46,3.72,6.89,7.1,6.88,7.23,16.74,7.69,8,.37,15.59-.9,22.27-5.78a69.61,69.61,0,0,0,7.35-6,117.18,117.18,0,0,0,12.23-14.55,46,46,0,0,0,8-17.44,155.9,155.9,0,0,0,3.63-33.34,55.15,55.15,0,0,0-1.25-12.6,16.37,16.37,0,0,0-3.34-7.45c-2.73-3.15-7.09-4.05-9.91-1.84a40.27,40.27,0,0,0-7.93,8.84c.64-.26.92-.28,1-.42,2.4-3.4,6.18-3.11,9.45-2.79,2.57.26,5,2,7.45,3.29,1.13.59,1.14,1.71.36,2.72a7,7,0,0,1-3.49,2.09c-9.2,3-16.75,8.91-24.29,14.66-4.36,3.33-7.91,7.62-11.64,11.67a23.15,23.15,0,0,0-5.55,10.88c-.55,2.47-1.05,5-1.63,7.42a4.31,4.31,0,0,1-1.79,3.15c-1-2,.52-4-.32-5.9-1.5,1.77-.82,4-2,5.54a14.53,14.53,0,0,0-2.36,5.84c-.73,3.08-1.32,6.2-2,9.29-.41,1.86-.83,3.72-1.41,5.53a2.33,2.33,0,0,1-2.69,1.74,2.62,2.62,0,0,1-2.47-2.47,16.41,16.41,0,0,1,.25-4.42,113.25,113.25,0,0,1,6.16-21c.32-.83.61-1.67.92-2.5l-.42-.21-2,2.77c-.62.86-1.21,1.73-1.87,2.55-.33.42-.82.74-1.36.33-.38-.3-.31-.76-.2-1.17a14.52,14.52,0,0,1,2.05-3.92c.79-1.25,1.57-2.5,2.31-3.79s1.29-2.39,1.93-3.59a55,55,0,0,0-10.13,16.44Zm-16.66,46.13a17.5,17.5,0,0,0,.14,8.08,14,14,0,0,1,.43,5c0,.51-.15,1.39-.65,1.24-2.15-.67-1.3,1-1.26,1.67.13,2.53.46,5.05.62,7.58.88,13.64,5.85,25.41,15.64,35.09a133.38,133.38,0,0,0,13.89,12,27.58,27.58,0,0,0,13.39,5.35c3.32.4,6.67.56,9.74,2.41,1.7,1,4,1.68,5.54-.87.47-.78,1.24-.45,2-.21a13.3,13.3,0,0,0,11-1.26,7.66,7.66,0,0,1,2.27-1.09,32.92,32.92,0,0,0,8.32-3c9.74-4.62,19.55-9.12,29.12-14.08A66.77,66.77,0,0,0,532.81,878c2.87-2.67,5.92-5.11,8.91-7.63,11.83-10,22.23-21.1,28.79-35.36,2.47-5.38,5-10.73,7.44-16.13a39,39,0,0,0,2.64-7.12q1.39-6,3.37-11.9a97.29,97.29,0,0,0,5.44-26.62,23.06,23.06,0,0,1,.58-5.34c.53-1.83-1.45-3.67.25-5.4.21-.22-.29-.45-.6-.53-1.28-.36-1.42-1.48-1.56-2.51a18.55,18.55,0,0,1-.21-3.79,15.71,15.71,0,0,0-1.57-8.6,33.78,33.78,0,0,1-1.77-4.75c-.22-.68-.61-1.39-.25-2.15s1.47.5,1.92-.51c-1.51-.76-3.1-1.45-4.06-2.92-.59-.88-1.74-2,.49-2.45.51-.1.79-.59.43-.9-1.48-1.29-.76-2.87-.47-4.55-.38.3-.6.39-.67.54-.36.84-.34,2-1.58,2.1s-1.53-1-2-1.79c-1.41-2.11-2.79-4.23-4.12-6.39-.5-.8-2.09-1.65-.93-2.55,1-.78,1.68.78,2.37,1.5a8.55,8.55,0,0,1,.93,1.28c1,1.4,1.91,2.82,2.86,4.23-.28-2.55-1.83-4.27-3.15-6.14-1.11-1.56-1.64-3.76-4.35-3.18-.34.07-.89-.5-1.26-.87a25.57,25.57,0,0,1-1.9-2.13c-4-5-8.25-9.92-13.71-13.54a5.83,5.83,0,0,1-1.34-1.33c-.71-.94-.11-1.48,1.22-2.16a14.2,14.2,0,0,1-7.56-1,36.17,36.17,0,0,0-11.46-2.13c-2.77-.14-5.43-.6-8.3-.08s-5.87.21-8.72,1.23a9.43,9.43,0,0,1-2.83.26,56.78,56.78,0,0,0-10,1.3c-.65.13-1.42.13-1.9,1.07,12.3,3.28,20.86,11.1,27.5,21.38.68,1.06,1.41,2.1,2.07,3.19,5.56,9.18,10.17,18.74,12.32,29.38a78.67,78.67,0,0,1,.68,28.69c-1.45,8.68-3.93,17.09-10.21,23.79a12.07,12.07,0,0,0-1.49,2,98.39,98.39,0,0,1-13.81,16.92,102.24,102.24,0,0,1-13.43,11.58c-1.36,1-2.85,1.85-2.71,4,.06,1-.87,1.44-1.68,1.68-5.55,1.65-10.29,4.88-15.27,7.66a41.44,41.44,0,0,1-20.63,5.4c-7.08,0-14.15,0-21.23-.57a35,35,0,0,1-15-4.57c-4.2-2.46-8.31-5.06-12.3-7.84a31.82,31.82,0,0,1-9.16-9.54C409.31,831.55,409.08,830.63,407.89,830.42ZM461,846a23.92,23.92,0,0,0,12.31,1.7,43.41,43.41,0,0,0,14.93-5.08c8.76-4.79,16.57-10.89,24.27-17.22,10.07-8.29,17.37-18.72,23.63-29.93,6.65-11.91,7.11-24.75,4.92-37.92-2.08-12.47-7.24-23.57-14.4-33.85a21.87,21.87,0,0,0-4.27-5.07,5.19,5.19,0,0,1-1.81-2.89c-.74-2.74-1.15-2.92-4.3-2.38a3,3,0,0,0,.38.83,13.67,13.67,0,0,1,4,8.08,2.75,2.75,0,0,0,.54,1.46c1.66,1.76,1.44,4.17,2,6.24s.68,4.36,1.1,6.54a63.19,63.19,0,0,1,1.28,17.34,127.48,127.48,0,0,1-14.34,49.26,105.8,105.8,0,0,1-29,34.44,32.86,32.86,0,0,1-16.08,6.93A11.82,11.82,0,0,0,461,846ZM421.64,821c.22,1,.21,1.22.33,1.35,4.63,5.39,9.52,10.51,15.68,14.19a29.09,29.09,0,0,0,15.45,4.06,6.36,6.36,0,0,0,3.58-1c5.57-3.64,11.74-6.27,17.28-10a4.14,4.14,0,0,1,1.45-.62c2.85-.6,4.89-2.39,6.78-4.44,5.37-5.84,10.64-11.76,16.12-17.48A67.41,67.41,0,0,0,512,785.88c4.27-10.33,7.32-21,7.67-32.21a81.17,81.17,0,0,0-5.08-29.84,37.2,37.2,0,0,0-6.44-11.59,18.41,18.41,0,0,0-9.66-6.3,6.48,6.48,0,0,0-5.63,1.37c-1,.71-1.07,1.55,0,2.3a20.62,20.62,0,0,1,4.74,4.63c4.22,5.8,7.53,12,8.14,19.32a16.33,16.33,0,0,0,.48,2.49,36.51,36.51,0,0,1,.5,16.63c-.09.4-.28.9-.13,1.23,1.39,3.25.25,6.57-.21,9.66-1.21,8-2.57,16.08-5.95,23.6A149.89,149.89,0,0,1,491,804.42c-4.6,7.46-11.07,12.64-18.79,16.51-4.08,2.05-8.63,2.83-12.67,5a6.2,6.2,0,0,1-2.18.36c-8.54.87-17.1.6-25.66.3a8.37,8.37,0,0,1-5.46-2.21C425,823.23,423.55,822.36,421.64,821Zm40.12,28.57c-3.22-.88-6.24-2.17-9.54-2.45a85.89,85.89,0,0,1-13.37-2.54,30.46,30.46,0,0,1-15.72-9.6,96.71,96.71,0,0,1-9.88-13.17c-.36-.58-.45-1.47-1.58-1.49a7.12,7.12,0,0,0,.67,4.86,24.35,24.35,0,0,0,3.61,5.58,60.59,60.59,0,0,0,20.33,15.36,28,28,0,0,0,6.59,2.25C449.11,849.66,455.46,849.45,461.76,849.55ZM451.59,745.11c1.83-.76,2.94-2.27,4.13-3.7s2.61-2.77,3.84-4.22,2.93-2.23,2.92-4.38A78.54,78.54,0,0,0,451.59,745.11Zm90.93,139.08h.05c0-.43,0-.85,0-1.27,0-.63,0-1.37-.71-1.62s-1.41.29-1.91.84a3.5,3.5,0,0,0-.56,3.86c.32.87.7,2,1.81,2s1.19-1.28,1.32-2.19A10.41,10.41,0,0,0,542.52,884.19Zm-7.26,5.28c-.08-.53-.12-1.15-.27-1.75a.93.93,0,0,0-1.16-.76,4,4,0,0,0-2.75,1.86c-.46.91.5,1.48,1.06,2s1.2,1.77,2.21,1.43C535.57,891.87,535.08,890.53,535.26,889.47ZM468.9,725.68a13.87,13.87,0,0,0,6.12-6.31A13,13,0,0,0,468.9,725.68Zm103.54-13.77c-1.18-3.06-3.39-4.95-6.33-5A13.56,13.56,0,0,1,572.44,711.91Z" transform="translate(-15.42 -326.35)"/><path class="cls-1" d="M513.51,909.24a4.92,4.92,0,0,1-.93-.1c-.84-.19-1.73-.46-1.71-1.51s.88-1.37,1.77-1.36c3.2,0,5-1.85,6.2-4.51.42-.94.73-2.33,2.1-1.62,1.21.63.59,1.88.14,2.8a16.51,16.51,0,0,1-3.54,4.79A5.46,5.46,0,0,1,513.51,909.24Z" transform="translate(-15.42 -326.35)"/><path class="cls-1" d="M410.26,918.18a2.25,2.25,0,0,1,.58.22,41.84,41.84,0,0,1,5.78,4.75.83.83,0,0,1,.16,1.12.9.9,0,0,1-1.16.15,15.46,15.46,0,0,1-5.94-4.94.82.82,0,0,1,0-1.13C409.82,918.23,410.07,918.23,410.26,918.18Z" transform="translate(-15.42 -326.35)"/><path class="cls-1" d="M609.44,731.83a3.25,3.25,0,0,1,.37,0c1.48.23,3.17,1.7,3.1,2.72a.88.88,0,0,1-.77.85c-1,.2-3-1-3.58-2.17C608.13,732.33,608.53,731.88,609.44,731.83Z" transform="translate(-15.42 -326.35)"/><path class="cls-1" d="M24.29,634.59c-.19,1,0,2.27-1.21,2.93a.92.92,0,0,1-.85-.16c-1-.94-.68-2.08-.39-3.21a3.57,3.57,0,0,1,.23-.57c.27-.58.59-1.28,1.28-1.19s.81.86.9,1.49C24.28,634.08,24.27,634.29,24.29,634.59Z" transform="translate(-15.42 -326.35)"/><path class="cls-1" d="M22.43,627.11c.05-.5.06-.82.11-1.13s.2-.88.65-1c.7-.19.83.45,1,.9a2.06,2.06,0,0,1,.21.91c0,.87.48,2.22-.77,2.32S22.78,627.73,22.43,627.11Z" transform="translate(-15.42 -326.35)"/><path class="cls-1" d="M239.42,576c6.75-6.56,13.08-13.51,19.55-20.33a86.52,86.52,0,0,1,12-10.79c1-.69,2.35-2.08,3.27-.91s-.73,2.22-1.7,2.79c-6.47,3.75-10.49,10-15.66,15.11a80.87,80.87,0,0,0-5.92,6.61c-2.52,3.06-6,5-8.86,7.62-.8.72-1.85,1.19-2.66-.15Z" transform="translate(-15.42 -326.35)"/><path class="cls-1" d="M276.77,542.77c-.74,0-1.11-.43-.87-1.21.38-1.17,2.84-2.71,4-2.54a.69.69,0,0,1,.67.84C280.43,541,278.12,542.72,276.77,542.77Z" transform="translate(-15.42 -326.35)"/><path class="cls-1" d="M555.81,467.59c-5.5-.66-9.89-1.75-13.94-3.91-7.54-4-8-12.67-1-17.75a18.12,18.12,0,0,1,11.38-3.17A37.63,37.63,0,0,1,564,444.88a22.38,22.38,0,0,1,3.47,1.52c5.43,3.11,6.36,9.37,2.07,13.91-2.42,2.55-5.07,4.69-8.69,5.46C558.83,466.2,557.13,467.84,555.81,467.59Zm-1.4-16.81c-3.47-.38-7.37,1.73-8.53,4.59a4.38,4.38,0,0,0-.31,1.22A2.1,2.1,0,0,0,546.7,459c1.06.5,1.76,0,2.39-.89,1.17-1.61,2.43-3.17,3.62-4.77C553.32,452.51,554.35,452,554.41,450.78Zm2.28,8.39a12.28,12.28,0,0,0,7.93-2.17c1.44-.93,1.61-2.06.78-3.22a2.46,2.46,0,0,0-3.59-.78A14.4,14.4,0,0,0,556.69,459.17Z" transform="translate(-15.42 -326.35)"/><path class="cls-1" d="M619.07,431a38.32,38.32,0,0,1,15.95,4.8,7.69,7.69,0,0,1,2.6,2.28,4.47,4.47,0,0,1,.46,5c-5.86,11.15-21.24,15.09-30.38,7.63-1.56-1.27-3.08-2.58-4.6-3.89a2.19,2.19,0,0,1-.56-2.85c2.44-5.09,5.81-9.31,11-11.85A11.24,11.24,0,0,1,619.07,431Zm-5.26,8.32a2.06,2.06,0,0,0-1.36.73c-1.42,1.48-1.14,3.73.65,5.19.57.46,1.19.95,2,.65a2.09,2.09,0,0,0,1.29-2c0-1.76-1.36-2.93-2-4.42C614.3,439.39,614,439.39,613.81,439.34Z" transform="translate(-15.42 -326.35)"/><path class="cls-1" d="M698.45,508.17a10.37,10.37,0,0,1-.05,1.25c-.19,1-.75,1.78-1.89,1.62s-1.2-1-1-1.92c.22-1.12.63-2.07,2.09-1.52l.57.24Z" transform="translate(-15.42 -326.35)"/><path class="cls-1" d="M151.62,458.51a22.2,22.2,0,0,1-3.09-9.45,1.12,1.12,0,0,1,.59-1.32,1,1,0,0,1,1.29.6A16.11,16.11,0,0,1,151.62,458.51Z" transform="translate(-15.42 -326.35)"/><path class="cls-1" d="M464.34,441.92a11.36,11.36,0,0,1,1,7.34,1.2,1.2,0,0,1-.95,1.12,1,1,0,0,1-1.1-.9A11.1,11.1,0,0,1,464.34,441.92Z" transform="translate(-15.42 -326.35)"/><path class="cls-1" d="M426.05,781.46c.74-.31,1.17-1.24,2.35-1.06a6.11,6.11,0,0,1-2.38,5.34c-1.56,1.23-1.33-.57-1.47-1.45Z" transform="translate(-15.42 -326.35)"/><path class="cls-1" d="M506.63,839.31c-.05-1.62.9-2.07,1.61-2.63,1.64-1.31,3.29-2.63,5-3.8a72.25,72.25,0,0,0,10.34-8.27,33,33,0,0,1,3.12-2.67c.71-.54,1.65-1.51,2.43-.51s-.43,1.66-1,2.36a4.78,4.78,0,0,1-.46.44c-5.59,4.46-10.85,9.35-16.91,13.2A10.06,10.06,0,0,1,506.63,839.31Z" transform="translate(-15.42 -326.35)"/><path class="cls-1" d="M428.28,887.77c1.92-.27,2.9.64,3.91,1.32,4.36,3,8.51,6.25,13.32,8.53,1,.48,2.48,1.36,1.77,2.55-.81,1.36-2,0-2.91-.52q-6.54-4.18-13-8.51A6.66,6.66,0,0,1,428.28,887.77Z" transform="translate(-15.42 -326.35)"/><path class="cls-1" d="M426.28,885.35a2,2,0,0,1-1.6-1,61.59,61.59,0,0,1-5.59-8.43,1.09,1.09,0,0,1,.14-1.45.85.85,0,0,1,1.15.16c2.24,3.16,5.21,5.84,6.32,9.72A.83.83,0,0,1,426.28,885.35Z" transform="translate(-15.42 -326.35)"/><path class="cls-1" d="M417.64,872.36a9.69,9.69,0,0,1-3.7-5.61c-.19-.59-.24-1.36.39-1.69s1.21.23,1.5.78C416.9,867.85,418,869.87,417.64,872.36Z" transform="translate(-15.42 -326.35)"/><path class="cls-1" d="M410.37,852.56a5.78,5.78,0,0,1-.07.94c-.09.4-.23.87-.76.81a1.16,1.16,0,0,1-.77-.45,7.87,7.87,0,0,1-1.16-5.1.84.84,0,0,1,.81-.8,1.09,1.09,0,0,1,.77.43A7.41,7.41,0,0,1,410.37,852.56Z" transform="translate(-15.42 -326.35)"/><path class="cls-1" d="M452.71,902.06a20.1,20.1,0,0,1-2.15-.75c-.67-.31-1.32-.82-1-1.69s1.12-.85,1.82-.6a12.91,12.91,0,0,1,2.26,1.05c.52.31,1.18.68.93,1.44S453.54,902.08,452.71,902.06Z" transform="translate(-15.42 -326.35)"/><path class="cls-1" d="M411.77,858.1c1.31.22,2.9,3.2,2.3,4.33a.76.76,0,0,1-1.07.3,5.42,5.42,0,0,1-2.13-4C411,858.24,411.32,858.1,411.77,858.1Z" transform="translate(-15.42 -326.35)"/><path class="cls-1" d="M531.55,819.14c-.37,0-.66-.17-.66-.51a3.13,3.13,0,0,1,.27-1.2c.78-1.81,2.47-3.46,3.19-3.13a.74.74,0,0,1,.35.47c.21,1-1.64,3.8-2.85,4.29A2.63,2.63,0,0,1,531.55,819.14Z" transform="translate(-15.42 -326.35)"/></svg>