<?xml version="1.0" encoding="UTF-8" standalone="no"?><!-- Generator: Gravit.io --><svg xmlns="http://www.w3.org/2000/svg" xmlns:xlink="http://www.w3.org/1999/xlink" style="isolation:isolate" viewBox="0 0 400 400" width="400pt" height="400pt"><defs><clipPath id="_clipPath_tuHvMaxub8C90diyBYKJP8j1GyWzbsgy"><rect width="400" height="400"/></clipPath></defs><g clip-path="url(#_clipPath_tuHvMaxub8C90diyBYKJP8j1GyWzbsgy)"><path d=" M 294.682 287.187 Q 239.081 349.584 132.82 319.312 C 26.56 289.04 5.555 208.727 3.084 203.167 Q -1.241 255.061 37.062 312.516 Q 75.365 369.971 142.705 389.74 L 168.034 395.3 L 226.725 369.971 Q 277.384 340.317 294.682 287.187 Z  M 6.173 162.392 Q 45.094 1.766 199.542 3.002 Q 130.349 30.185 96.988 90.111 Q 63.627 177.219 72.276 221.701 Q 80.926 266.182 116.14 296.453 Q 25.324 263.71 6.173 162.392 Z  M 106.873 109.88 Q 142.087 27.096 239.081 6.709 Q 389.822 48.101 396 198.224 Q 366.964 105.555 248.965 75.284 Q 151.354 62.31 106.873 109.88 Z  M 287.268 104.32 Q 353.99 175.984 308.273 302.014 Q 289.74 350.819 209.427 397.154 Q 308.273 392.829 370.67 300.778 Q 395.382 245.794 394.147 235.292 Q 368.817 137.063 287.268 104.32 Z  M 191.735 143.532 L 191.735 194.67 L 203.753 194.67 L 203.753 194.67 Q 220.603 194.67 228.969 188.013 L 228.969 188.013 L 228.969 188.013 Q 237.335 181.355 237.335 168.63 L 237.335 168.63 L 237.335 168.63 Q 237.335 155.786 230.324 149.659 L 230.324 149.659 L 230.324 149.659 Q 223.313 143.532 208.349 143.532 L 208.349 143.532 L 191.735 143.532 Z  M 274.216 167.333 L 274.216 167.333 L 274.216 167.333 Q 274.216 195.141 256.836 209.87 L 256.836 209.87 L 256.836 209.87 Q 239.456 224.599 207.406 224.599 L 207.406 224.599 L 191.735 224.599 L 191.735 285.87 L 155.207 285.87 L 155.207 113.603 L 210.234 113.603 L 210.234 113.603 Q 241.577 113.603 257.896 127.095 L 257.896 127.095 L 257.896 127.095 Q 274.216 140.586 274.216 167.333 Z " fill-rule="evenodd" fill="rgb(255,255,255)" vector-effect="non-scaling-stroke" stroke-width="1" stroke="rgb(255,255,255)" stroke-linejoin="miter" stroke-linecap="square" stroke-miterlimit="3"/></g></svg>