<svg id="Layer_1" data-name="Layer 1" xmlns="http://www.w3.org/2000/svg" viewBox="0 0 78.13 90.75"><defs><style>.cls-1{fill:#fbb03b;}.cls-2{fill:#fff;}</style></defs><title>logo</title><path class="cls-1" d="M237.11,100q0,17.4,0,34.8a8.77,8.77,0,0,1-8.48,8.5c-5.37,0-10.75,0-16.12,0-13.36,0-26.72-.09-40.07.05A9.34,9.34,0,0,1,163,134V80.18c0-4.81,0-9.62,0-14.43a9.22,9.22,0,0,1,7.4-9,7.53,7.53,0,0,1,1.43-.11h56.7a8.84,8.84,0,0,1,8.58,8.59V100ZM224.28,90c0-.76,0-1.53,0-2.29a11.78,11.78,0,0,0-.17-1.17,23.56,23.56,0,0,0-9.48-15.9,24.24,24.24,0,0,0-35.39,7.2,23.12,23.12,0,0,0-1.68,20.9c2.84,7.4,8.24,12.14,15.73,14.57.28.1.63.34.88.11s0-.59-.11-.87a10,10,0,0,1,16.25-10.22c1.89,1.72,3.82,3.36,5.86,4.89.51.39.75.35,1.17-.08A23.63,23.63,0,0,0,224.28,90Zm-2.7,44.09a6.19,6.19,0,0,0,5.92-3.91,6.25,6.25,0,0,0-1.62-7.12c-1-.94-2.19-1.7-3.28-2.55-4.56-3.59-9.37-6.84-14-10.27-1.07-.79-2.11-1.62-3.19-2.39a2.63,2.63,0,0,0-3.49.27,2.73,2.73,0,0,0-.2,3.43q5.1,6.93,10.16,13.9c1.57,2.14,3.12,4.3,4.85,6.32A6,6,0,0,0,221.58,134.08Zm-44.89,0a4.16,4.16,0,0,0,4.32-4.33,4.34,4.34,0,0,0-4.29-4.42,4.5,4.5,0,0,0-4.45,4.44A4.36,4.36,0,0,0,176.69,134.07Z" transform="translate(-160.99 -54.61)"/><path class="cls-2" d="M172.35,145.36a11.49,11.49,0,0,1-8-3.32,11.2,11.2,0,0,1-3.32-8V75.68c0-3.31,0-6.63,0-10a11.26,11.26,0,0,1,9-11,9.22,9.22,0,0,1,1.82-.15h56.7A10.86,10.86,0,0,1,239.12,65.2V102h0v8.19q0,12.3,0,24.62a10.82,10.82,0,0,1-10.46,10.49q-5.61,0-11.21,0h-4.93l-11.37,0c-9.4,0-19.12,0-28.68.07ZM205,58.61h-33.2a6,6,0,0,0-1.05.07A7.26,7.26,0,0,0,165,65.76c0,3.31,0,6.61,0,9.92V134a7.16,7.16,0,0,0,2.13,5.2,7.68,7.68,0,0,0,5.29,2.16c9.58-.1,19.32-.08,28.73-.07l11.36,0h4.93q5.59,0,11.18,0a6.79,6.79,0,0,0,6.49-6.5q0-12.3,0-24.61V98h0V65.2a6.85,6.85,0,0,0-6.58-6.59Zm16.34,77.48a7.93,7.93,0,0,1-6.19-3c-1.68-1.95-3.19-4-4.66-6l-1-1.33q-4.74-6.48-9.48-13a4.74,4.74,0,0,1,.33-6,4.65,4.65,0,0,1,6.13-.56c.66.47,1.31,1,2,1.46l1.26,1c1.69,1.24,3.39,2.45,5.09,3.67,3,2.13,6,4.32,9,6.63.37.29.74.56,1.11.84a24.74,24.74,0,0,1,2.28,1.81,8.26,8.26,0,0,1,2.14,9.33,8.13,8.13,0,0,1-7.75,5.18Zm-17.64-26.78a.45.45,0,0,0-.36.14.7.7,0,0,0-.07.9q4.75,6.48,9.48,13l1,1.34c1.42,2,2.89,4,4.46,5.8a4,4,0,0,0,3.3,1.62h.06a4.32,4.32,0,0,0,2.95-7.55,24.81,24.81,0,0,0-2-1.55c-.41-.3-.81-.6-1.2-.91-2.88-2.25-5.91-4.43-8.85-6.52-1.72-1.23-3.44-2.46-5.14-3.71l-1.31-1c-.61-.47-1.22-.93-1.85-1.38A.86.86,0,0,0,203.74,109.31Zm-27.07,26.76a6.37,6.37,0,0,1-6.4-6.3,6.45,6.45,0,0,1,1.91-4.56,6.56,6.56,0,0,1,4.55-1.89,6.32,6.32,0,0,1,6.28,6.42,6.14,6.14,0,0,1-6.32,6.33h0Zm0-8.75a2.5,2.5,0,0,0-2.41,2.43,2.37,2.37,0,0,0,2.4,2.32h0a2.17,2.17,0,0,0,2.33-2.33,2.35,2.35,0,0,0-2.31-2.42ZM194,115.5a3.2,3.2,0,0,1-1.25-.28c-8.31-2.71-14-8-17-15.77A26.19,26.19,0,0,1,197,64a25.15,25.15,0,0,1,18.88,5,25.6,25.6,0,0,1,10.25,17.21,3.06,3.06,0,0,0,0,.32,7.35,7.35,0,0,1,.14,1.07c0,.57,0,1.14,0,1.71V90a25.73,25.73,0,0,1-7.51,18.52,2.67,2.67,0,0,1-3.82.3c-1.89-1.43-3.8-3-6-5a8,8,0,0,0-13,8.14,2.39,2.39,0,0,1-.42,2.91A2.28,2.28,0,0,1,194,115.5Zm6.5-47.69a23.47,23.47,0,0,0-3,.19,22.18,22.18,0,0,0-18,30,21.25,21.25,0,0,0,12.29,12.58,12,12,0,0,1,19.94-9.75c1.79,1.62,3.37,3,4.91,4.17a21.38,21.38,0,0,0,5.72-15v-.7c0-.51,0-1,0-1.54a4.61,4.61,0,0,0-.07-.5c0-.15-.06-.31-.08-.46a21.71,21.71,0,0,0-8.71-14.59A21.05,21.05,0,0,0,200.45,67.81Z" transform="translate(-160.99 -54.61)"/><path class="cls-1" d="M200.12,85.47a4.52,4.52,0,0,1,4.65,4.58,4.63,4.63,0,1,1-9.25,0A4.49,4.49,0,0,1,200.12,85.47Z" transform="translate(-160.99 -54.61)"/><path class="cls-2" d="M200.14,96.7h0a6.54,6.54,0,0,1-4.65-2A6.61,6.61,0,0,1,193.52,90a6.47,6.47,0,0,1,6.6-6.52h0a6.67,6.67,0,0,1,4.76,1.93,6.47,6.47,0,0,1,1.89,4.65,6.71,6.71,0,0,1-6.63,6.65Zm0-9.23h0a2.49,2.49,0,0,0-2.6,2.56,2.6,2.6,0,0,0,.78,1.88,2.52,2.52,0,0,0,1.82.79h0a2.7,2.7,0,0,0,2.63-2.65,2.51,2.51,0,0,0-.72-1.82A2.67,2.67,0,0,0,200.12,87.47Z" transform="translate(-160.99 -54.61)"/></svg>